<?xml version="1.0" standalone="no"?>
<!DOCTYPE svg PUBLIC "-//W3C//DTD SVG 20010904//EN"
 "http://www.w3.org/TR/2001/REC-SVG-20010904/DTD/svg10.dtd">
<svg version="1.0" xmlns="http://www.w3.org/2000/svg"
 width="821.000000pt" height="1280.000000pt" viewBox="0 0 821.000000 1280.000000"
 preserveAspectRatio="xMidYMid meet">
<metadata>
Created by potrace 1.15, written by Peter Selinger 2001-2017
</metadata>
<g transform="translate(0.000000,1280.000000) scale(0.100000,-0.100000)"
fill="#000000" stroke="none">
<path d="M3405 12794 c-138 -9 -346 -36 -460 -59 -209 -42 -334 -89 -520 -195
-42 -23 -100 -46 -145 -56 -179 -39 -174 -37 -289 -147 -58 -57 -128 -115
-156 -131 -109 -63 -244 -187 -315 -291 -24 -36 -34 -65 -45 -138 -19 -122
-45 -203 -116 -359 -33 -71 -75 -183 -94 -249 -36 -121 -83 -250 -149 -410
-20 -47 -54 -155 -76 -240 -22 -85 -49 -166 -60 -181 -11 -15 -29 -64 -39
-110 -11 -46 -36 -135 -56 -198 -44 -139 -52 -235 -63 -755 l-8 -350 -126
-217 c-207 -355 -289 -519 -356 -709 -17 -47 -41 -101 -54 -120 -12 -19 -36
-68 -52 -109 -71 -183 -89 -219 -131 -275 -168 -223 -102 -513 129 -565 38 -8
73 -7 163 6 89 13 123 14 151 6 65 -20 67 -29 67 -292 1 -164 5 -244 13 -264
7 -16 51 -69 98 -117 l86 -87 -8 -69 c-18 -152 3 -202 115 -278 85 -57 106
-92 99 -165 -4 -34 -16 -61 -50 -107 -71 -97 -138 -274 -138 -367 0 -78 69
-377 105 -453 87 -185 233 -261 572 -298 81 -9 156 -21 168 -27 11 -6 47 -35
80 -63 33 -29 98 -78 145 -108 170 -111 160 -102 160 -148 0 -22 9 -75 19
-117 11 -43 24 -110 30 -149 6 -40 20 -96 32 -125 20 -52 20 -54 4 -193 -11
-89 -20 -261 -24 -475 l-7 -335 -37 -60 c-21 -33 -43 -79 -50 -103 -6 -23 -21
-51 -32 -62 -11 -11 -91 -46 -177 -79 -398 -151 -468 -192 -652 -376 -240
-240 -346 -401 -486 -739 -90 -218 -167 -375 -263 -534 -115 -192 -195 -388
-169 -414 13 -13 46 36 167 247 54 94 115 195 136 227 43 62 117 214 175 353
100 244 177 386 307 569 198 278 375 400 814 565 89 33 175 67 190 75 54 28
84 72 124 181 56 156 76 172 158 130 28 -14 53 -25 56 -25 9 0 5 61 -12 178
-14 98 -14 133 -4 236 13 142 14 226 3 226 -17 0 -51 -199 -53 -305 0 -33 -5
-69 -10 -80 -15 -33 1 296 22 445 22 155 24 206 8 216 -16 9 -26 -9 -55 -106
-42 -137 -44 -142 -38 -70 8 95 24 170 45 212 11 21 19 42 19 47 0 5 -18 30
-39 55 -50 58 -87 136 -102 217 -21 116 6 173 77 162 20 -3 40 -1 49 7 10 9
19 9 28 2 18 -15 90 -24 131 -17 44 9 46 20 6 29 -37 7 -39 23 -5 32 16 4 34
0 50 -10 13 -9 37 -16 52 -16 l28 0 -24 13 c-34 17 -29 30 18 47 38 13 44 13
86 -8 35 -17 50 -20 65 -12 24 13 26 28 5 36 -24 9 -18 21 16 33 51 17 79 14
79 -9 0 -27 40 -27 71 0 24 19 24 19 2 20 -28 0 -53 10 -53 20 0 14 155 87
200 95 24 4 62 22 86 40 50 38 131 68 171 63 l28 -4 -38 -19 c-48 -24 -43 -39
16 -43 42 -3 51 1 89 36 60 54 89 72 116 72 27 0 41 28 21 41 -21 14 -75 3
-98 -20 -14 -14 -34 -21 -58 -21 l-37 0 29 30 c25 26 27 32 15 40 -8 5 -25 10
-37 10 -28 0 -53 10 -53 21 0 14 54 11 86 -6 37 -18 91 -7 143 29 21 15 52 31
70 36 26 7 34 6 44 -11 16 -25 20 -24 60 11 33 28 35 29 40 10 8 -30 51 -26
65 5 17 36 15 100 -3 115 -21 18 -19 35 10 67 l24 28 1 -25 c1 -51 13 -56 69
-29 70 33 65 59 -9 59 -35 0 -40 8 -29 38 5 14 17 22 33 22 21 0 25 6 31 50 4
28 11 50 16 50 15 0 49 -64 44 -81 -9 -26 5 -49 30 -49 28 0 36 26 24 77 -5
21 -9 51 -9 67 0 23 3 27 18 20 9 -4 33 -8 52 -8 38 -1 40 5 24 83 -10 52 17
35 38 -23 9 -27 23 -55 31 -65 7 -9 14 -28 15 -43 2 -40 52 -138 70 -138 12 0
14 10 8 57 -9 81 -42 201 -72 273 -30 68 -24 87 29 92 29 3 32 6 35 41 2 23 8
37 15 34 6 -2 28 -50 48 -108 21 -57 59 -162 84 -234 44 -123 67 -166 80 -153
10 10 -14 161 -34 219 -11 30 -22 79 -26 109 l-6 55 26 -32 c48 -59 67 -34 46
60 -5 20 -5 37 0 37 14 0 94 -177 129 -285 45 -138 70 -195 86 -195 23 0 17
67 -10 113 -13 23 -27 62 -30 86 -4 25 -20 77 -36 117 -16 40 -32 90 -36 111
-4 21 -14 53 -21 72 -8 19 -12 45 -8 60 6 25 7 25 21 6 8 -11 23 -47 33 -80
10 -33 44 -123 76 -200 71 -175 124 -356 165 -561 33 -165 52 -224 69 -224 15
0 14 9 -10 140 -24 135 -58 285 -88 390 -93 333 -126 441 -147 483 -27 54 -32
107 -10 107 40 0 204 -533 311 -1008 44 -199 185 -940 185 -975 0 -5 10 -7 23
-5 17 2 23 10 25 38 6 73 -181 1018 -238 1203 -11 34 -26 94 -34 132 -31 147
-138 462 -196 575 -20 38 -18 74 3 67 44 -14 299 -775 356 -1062 11 -55 34
-161 51 -235 17 -74 54 -243 81 -375 51 -239 69 -305 88 -305 29 0 30 -6 -70
490 -114 559 -265 1093 -419 1480 -23 58 -46 111 -52 118 -19 22 -48 14 -59
-18 -14 -40 -24 -38 -43 10 -26 65 -17 92 23 71 26 -14 39 3 43 59 l3 45 18
-34 c10 -18 25 -52 32 -75 7 -22 38 -95 68 -161 99 -220 165 -398 245 -665 85
-283 100 -340 133 -520 28 -152 164 -691 189 -747 12 -27 25 -43 32 -40 15 5
17 -9 -26 197 -58 274 -133 593 -190 805 -30 110 -64 236 -76 280 -67 255
-226 720 -295 860 -28 57 -85 227 -85 252 0 10 3 13 9 7 9 -9 202 -444 241
-544 101 -256 237 -713 356 -1200 42 -168 97 -384 124 -480 27 -96 52 -195 56
-220 8 -51 20 -80 34 -80 19 0 10 83 -26 223 -19 78 -58 243 -85 367 -128 579
-325 1240 -490 1638 -44 107 -78 199 -77 204 4 11 52 -76 136 -245 91 -184
350 -939 397 -1157 35 -166 193 -786 210 -828 17 -39 45 -43 45 -6 0 29 -215
884 -280 1114 -112 397 -290 876 -441 1186 -27 55 -49 106 -49 113 0 28 35 3
48 -34 8 -22 61 -134 117 -250 98 -200 239 -536 283 -675 12 -36 75 -255 142
-487 66 -232 134 -458 150 -503 17 -45 30 -94 30 -110 0 -15 9 -56 19 -91 11
-35 24 -102 31 -149 13 -96 33 -143 58 -138 24 5 21 28 -33 233 -25 99 -52
209 -59 245 -13 66 -156 561 -248 859 -88 286 -259 724 -394 1013 -60 128 -91
216 -66 193 5 -5 60 -107 121 -225 118 -231 209 -446 295 -697 30 -87 78 -223
108 -303 31 -80 66 -190 79 -245 13 -55 70 -237 126 -405 98 -296 101 -303
102 -245 1 70 -2 83 -143 530 -182 573 -392 1145 -517 1404 -139 286 -35 148
125 -168 52 -102 102 -195 111 -206 16 -20 16 -19 9 5 -18 66 -259 581 -307
658 -68 109 -80 132 -68 132 29 0 175 -239 309 -507 84 -168 246 -554 334
-798 108 -298 223 -644 254 -765 68 -261 110 -368 184 -466 21 -28 45 -68 54
-88 8 -20 21 -36 28 -37 7 0 25 -2 41 -3 21 -1 50 -26 119 -100 51 -55 98
-110 105 -124 7 -13 27 -40 43 -59 17 -18 30 -42 30 -52 0 -10 7 -24 15 -31
37 -31 3 83 -46 151 -37 53 -14 53 46 -1 96 -84 194 -124 209 -85 8 22 38 18
80 -10 20 -14 39 -25 42 -25 10 0 -20 45 -58 86 -46 50 -78 58 -78 19 0 -31
-32 -50 -60 -35 -27 15 -124 144 -111 148 6 2 59 -9 118 -24 92 -24 120 -37
193 -86 177 -121 203 -143 312 -258 62 -64 147 -145 189 -178 42 -33 89 -77
104 -99 16 -21 54 -60 86 -88 60 -52 104 -103 96 -111 -3 -3 -38 5 -78 18 -64
19 -95 22 -234 22 -248 0 -417 -40 -637 -149 -178 -88 -305 -180 -498 -360
-211 -196 -338 -295 -726 -562 -204 -141 -397 -328 -560 -546 -85 -113 -231
-353 -293 -478 -48 -98 -112 -190 -236 -339 -30 -36 -71 -96 -92 -134 -21 -38
-53 -81 -71 -95 -40 -32 -60 -85 -40 -108 11 -14 31 -15 143 -10 71 4 183 13
248 22 65 8 284 19 485 25 415 11 643 26 719 46 66 18 82 18 106 -3 18 -17 19
-17 32 1 19 25 23 83 29 351 2 127 9 241 13 254 5 13 41 47 81 75 39 28 115
84 169 124 311 233 690 449 923 526 118 39 255 66 339 66 107 0 209 41 288
113 64 59 79 96 86 207 3 52 18 165 32 250 24 136 27 173 22 305 -5 169 -23
249 -82 365 -64 128 -151 211 -317 304 -27 15 -54 39 -62 54 -29 55 -302 302
-459 415 -74 53 -327 183 -472 242 -93 38 -113 52 -132 89 -9 17 -47 80 -86
140 -75 117 -134 236 -143 288 -3 18 -24 87 -46 153 -52 157 -60 264 -30 386
12 46 26 129 31 184 6 55 24 156 41 225 16 69 32 137 35 151 5 26 39 49 74 49
35 0 119 52 175 108 123 124 182 255 195 429 5 71 12 108 23 120 9 10 25 43
35 74 40 119 121 225 374 492 307 323 496 565 588 752 68 137 159 344 167 380
4 17 15 48 25 70 10 22 25 90 33 150 16 118 22 137 86 315 23 63 58 178 77
255 31 121 36 158 38 270 1 72 7 157 13 190 17 85 40 352 48 546 7 161 6 168
-19 245 -44 134 -51 198 -32 300 32 174 38 259 27 358 -20 180 -84 318 -212
461 -83 94 -148 193 -185 287 -42 106 -203 279 -360 385 -33 23 -120 98 -194
168 -159 151 -275 248 -397 335 -49 35 -118 88 -153 117 -199 169 -506 338
-815 448 -301 108 -282 106 -1096 116 -382 5 -832 10 -1000 12 -168 3 -332 3
-365 1z m284 -53 c17 -11 13 -13 -89 -46 -109 -35 -117 -39 -245 -135 -113
-85 -179 -124 -198 -117 -13 4 79 92 157 150 56 42 63 52 46 62 -22 13 -72 -8
-183 -80 -131 -84 -177 -109 -185 -101 -3 3 22 35 56 70 65 67 80 103 40 91
-44 -14 -118 -59 -175 -106 -74 -62 -98 -75 -152 -84 -59 -10 -52 3 34 62 38
27 71 56 73 66 7 37 -62 11 -140 -54 -46 -39 -66 -38 -53 0 14 46 -44 31 -115
-28 -57 -48 -68 -54 -80 -46 -18 11 19 63 63 90 24 14 75 32 113 41 38 9 97
25 131 36 34 11 95 21 135 23 40 2 107 12 148 23 41 11 95 24 120 27 25 4 79
15 120 26 107 27 352 47 379 30z m1241 -41 c0 -5 -4 -10 -10 -10 -5 0 -72 -9
-149 -20 -116 -17 -149 -18 -188 -9 -67 16 -76 29 -22 30 24 1 91 5 149 9 166
11 220 11 220 0z m-581 -13 c19 -7 37 -18 39 -26 4 -12 -14 -13 -112 -8 -121
6 -144 -2 -82 -28 33 -14 167 -33 271 -38 40 -2 49 -5 47 -18 -4 -24 36 -28
403 -35 235 -5 327 -3 320 4 -21 22 -155 35 -367 35 -120 0 -218 4 -218 8 0 7
37 23 85 35 17 5 143 9 280 9 184 1 258 4 280 14 28 12 29 14 10 22 -11 5 -67
15 -125 23 l-105 14 230 1 c304 1 426 -17 485 -72 45 -42 74 -56 145 -71 83
-18 105 -25 105 -37 0 -5 -9 -9 -19 -9 -19 0 -133 -55 -205 -99 l-38 -24 21
41 c12 23 21 54 21 70 0 91 -182 106 -389 31 -47 -17 -115 -42 -151 -55 -76
-27 -112 -29 -276 -9 -151 18 -211 10 -388 -50 -185 -62 -227 -70 -268 -51
-18 9 -80 20 -138 25 -58 6 -148 20 -200 31 -71 16 -145 23 -296 27 -185 5
-206 4 -260 -15 -72 -25 -200 -40 -190 -23 13 21 140 78 221 99 124 33 246 45
395 40 166 -7 259 -27 374 -84 122 -60 213 -59 156 1 -78 83 -586 156 -775
110 -33 -8 -71 -14 -84 -15 -23 0 -24 1 -6 20 35 39 214 86 415 109 114 13
350 12 389 -2z m1381 -202 c18 -22 -2 -57 -53 -91 -66 -44 -317 -170 -402
-202 -174 -66 -354 -90 -400 -52 -21 17 -10 24 80 51 118 35 125 39 120 63 -4
16 2 25 25 38 17 10 28 22 25 28 -8 12 -405 14 -405 1 0 -8 125 -21 209 -21
53 0 46 -13 -28 -53 -51 -28 -382 -101 -512 -113 -89 -8 -129 -22 -129 -44 0
-26 -49 -32 -166 -20 -139 14 -201 28 -264 60 -67 34 -231 92 -238 85 -3 -3
22 -31 56 -63 34 -31 62 -62 62 -69 0 -23 59 -37 235 -57 263 -30 452 -41 513
-28 31 6 142 15 245 18 179 7 230 15 170 28 -41 9 -267 26 -353 26 -40 0 -70
4 -65 8 6 5 38 21 73 36 79 35 157 36 273 5 58 -16 126 -25 219 -29 133 -5
135 -6 100 -21 -19 -9 -65 -22 -102 -29 -47 -8 -68 -17 -68 -27 0 -40 -146
-59 -320 -43 -92 9 -125 9 -133 1 -15 -15 0 -25 83 -53 47 -15 98 -22 186 -26
148 -5 210 9 435 96 336 131 472 147 627 77 42 -19 78 -48 139 -112 59 -63 85
-84 98 -79 14 5 10 13 -24 52 -48 55 -99 152 -108 206 -3 22 -14 45 -26 53
-17 12 -23 12 -45 -3 -18 -12 -54 -18 -128 -20 -110 -4 -198 9 -226 35 -22 20
-23 33 -3 33 19 0 115 48 181 90 26 16 50 28 52 25 8 -8 -29 -44 -75 -77 -51
-35 -56 -58 -13 -58 44 0 102 33 172 97 143 131 332 159 467 67 42 -28 40 -29
-36 -9 -91 24 -260 14 -279 -17 -11 -18 15 -25 114 -31 128 -7 235 -36 357
-96 131 -65 211 -130 248 -203 43 -82 31 -104 -17 -34 -40 59 -87 101 -144
130 -49 25 -51 19 -16 -69 4 -11 -24 9 -62 45 -90 84 -167 123 -256 128 -41 3
-72 10 -79 18 -24 29 -150 10 -168 -25 -22 -39 61 -204 158 -316 34 -38 73
-94 88 -124 34 -66 61 -85 119 -82 25 0 54 -4 65 -10 11 -6 75 -17 142 -24
147 -17 178 -26 240 -65 75 -47 61 -58 -46 -37 -14 2 -15 -38 -4 -96 l8 -38
-68 8 c-113 12 -118 11 -183 -51 -75 -72 -172 -119 -255 -123 l-60 -4 70 34
c57 27 135 83 209 148 16 15 -15 39 -51 39 -46 0 -69 -14 -82 -50 -17 -49 -75
-69 -238 -80 -186 -14 -227 -42 -129 -90 102 -49 250 -74 358 -60 100 12 173
49 239 122 56 62 88 72 69 22 -26 -66 -135 -164 -242 -214 -50 -24 -57 -30
-36 -30 40 0 131 36 189 76 74 49 81 47 49 -16 -21 -40 -14 -54 11 -24 8 9 30
44 49 77 54 93 71 89 49 -13 -9 -43 -20 -59 -72 -108 -150 -140 -187 -179
-187 -200 0 -13 6 -22 15 -22 30 0 113 38 183 83 40 26 94 58 120 71 26 13 56
33 66 45 21 24 46 28 46 8 0 -47 -34 -120 -78 -165 -48 -50 -99 -88 -107 -80
-2 2 12 27 31 55 20 28 34 59 32 69 -3 15 -9 8 -28 -25 -48 -86 -219 -151
-395 -151 -97 0 -144 11 -185 42 -53 41 -124 115 -162 171 -47 69 -97 127
-109 127 -5 0 -9 -8 -9 -19 0 -15 -7 -18 -37 -17 -32 1 -39 -3 -41 -21 -4 -28
61 -146 96 -174 l27 -21 9 51 c5 28 13 51 17 51 21 0 80 -65 89 -98 25 -91
128 -223 220 -282 28 -18 55 -41 61 -51 8 -17 6 -19 -18 -19 -16 0 -57 14 -92
31 -78 38 -93 30 -61 -35 35 -72 70 -96 143 -96 79 0 140 -27 162 -71 9 -17
21 -58 25 -91 17 -116 88 -166 271 -193 122 -18 124 -19 209 -53 88 -34 245
-42 340 -17 90 24 120 29 120 18 0 -5 -17 -19 -38 -31 -109 -61 -285 -69 -463
-22 -63 17 -151 38 -197 47 -76 16 -83 16 -99 1 -23 -24 -1 -48 43 -48 61 0
74 -24 74 -144 l0 -104 45 -26 c54 -32 58 -53 13 -58 -32 -3 -33 -5 -39 -58
-10 -88 -71 -214 -128 -264 -30 -27 -28 -4 5 70 15 33 37 90 50 128 13 38 31
80 39 92 19 29 19 54 0 54 -9 0 -22 -25 -35 -72 -80 -271 -339 -468 -615 -468
-64 0 -103 13 -69 23 11 3 60 13 111 21 199 34 317 100 400 225 66 97 133 308
133 414 0 93 -42 167 -95 167 -30 0 -33 15 -5 23 13 3 20 14 20 28 0 24 -39
89 -54 89 -5 0 -39 -29 -76 -64 -118 -111 -380 -225 -638 -276 -157 -31 -405
-23 -351 11 8 5 46 9 84 9 94 0 222 22 325 56 104 34 82 42 -63 20 -165 -24
-232 -27 -324 -16 -74 9 -170 39 -195 59 -4 3 78 6 182 6 247 0 265 13 58 43
-300 42 -340 80 -118 111 181 26 412 43 423 32 27 -27 126 0 266 75 134 71
233 156 209 180 -12 11 -76 -25 -128 -71 -112 -99 -258 -168 -307 -146 -30 14
-284 14 -413 1 -86 -9 -363 -55 -400 -67 -12 -3 -9 -9 11 -26 22 -18 25 -25
15 -40 -9 -15 -7 -21 9 -33 34 -25 0 -33 -105 -27 -77 5 -102 3 -127 -11 -38
-19 -63 -20 -97 -5 -46 21 -39 36 17 36 53 -1 133 28 131 48 -1 16 -75 62
-138 86 -71 27 -175 108 -308 238 -54 52 -98 89 -98 83 0 -23 80 -140 123
-179 66 -61 189 -151 230 -168 37 -15 46 -28 27 -40 -14 -8 -98 37 -177 95
-37 28 -133 118 -213 200 -141 145 -192 182 -170 124 10 -25 38 -66 100 -148
17 -21 30 -44 30 -50 0 -18 -80 67 -141 151 -68 93 -146 168 -204 194 -46 22
-74 23 -109 8 -20 -9 -40 -7 -103 10 -172 46 -321 13 -463 -101 -30 -25 -76
-56 -101 -71 -25 -14 -58 -44 -72 -66 -25 -38 -55 -57 -45 -28 3 6 17 49 32
95 15 45 33 83 39 83 7 1 17 2 22 4 6 1 17 3 26 3 9 1 54 25 100 53 103 63
139 79 208 94 61 13 81 35 32 35 -37 0 -49 17 -25 35 15 11 16 15 5 29 -18 21
-56 20 -130 -3 -81 -25 -138 -60 -189 -115 l-41 -44 -3 50 c-2 28 -8 53 -14
55 -23 8 -80 -144 -109 -292 -9 -44 -19 -138 -23 -210 l-8 -130 -30 60 c-28
58 -29 64 -29 211 l0 150 62 127 c41 84 79 145 110 179 147 158 378 217 466
120 18 -20 18 -21 -3 -32 -13 -7 -37 -9 -56 -5 -58 10 -244 -31 -244 -55 0 -5
89 -8 198 -7 170 2 204 -1 245 -16 26 -10 53 -17 60 -14 7 2 -21 36 -65 78
-48 47 -78 83 -78 96 0 28 -14 38 -82 57 -32 9 -73 29 -90 45 -18 15 -42 33
-53 38 -85 43 -235 2 -322 -89 -27 -28 -135 -251 -158 -326 -4 -13 -12 -21
-18 -19 -47 15 24 270 102 367 15 19 35 50 45 67 33 65 113 83 369 83 138 0
178 3 175 13 -9 25 -50 35 -127 30 -87 -6 -127 6 -140 40 -18 47 -83 49 -191
7 -85 -34 -90 -35 -90 -17 0 21 51 64 105 89 48 21 121 27 215 16 40 -5 37 15
-5 36 -23 11 -68 21 -111 24 -66 4 -79 2 -141 -27 -67 -32 -113 -66 -113 -84
0 -5 -21 -41 -47 -81 -35 -52 -49 -66 -51 -52 -6 28 43 144 83 198 58 79 188
127 350 128 28 0 57 5 65 10 13 9 13 12 -4 25 -32 25 -117 37 -184 26 -134
-21 -251 -108 -330 -243 -25 -43 -49 -81 -54 -84 -28 -17 11 116 65 221 38 75
82 111 197 161 120 52 144 69 130 94 -38 71 -222 38 -334 -60 -36 -32 -76
-103 -76 -135 0 -21 -37 -65 -56 -65 -6 0 -17 14 -24 31 -22 51 1 103 79 179
113 111 214 153 414 170 70 6 138 15 150 19 21 8 21 8 1 19 -34 18 -182 35
-262 30 -101 -7 -169 -34 -266 -108 -91 -68 -114 -67 -72 3 52 90 178 172 298
197 71 14 264 4 293 -16 11 -8 35 -14 53 -14 57 0 35 29 -48 63 -68 28 -85 31
-180 32 -170 0 -321 -54 -412 -147 -26 -26 -49 -48 -52 -48 -15 0 -3 40 23 81
36 57 89 101 170 142 60 29 72 32 195 35 137 5 230 -7 325 -39 58 -20 116 -25
125 -10 22 34 -174 78 -429 97 -49 3 -98 10 -110 14 -34 13 31 19 275 24 214
4 260 8 260 26 0 10 -129 28 -255 35 -55 4 -115 9 -132 12 -75 12 -16 37 127
53 162 18 305 -7 565 -101 120 -43 121 -43 281 -47 97 -2 174 0 195 7 64 20
170 58 176 64 15 15 -53 17 -110 3 -80 -20 -270 -21 -388 -2 -47 8 -135 28
-195 45 -60 16 -147 37 -194 46 -46 8 -88 19 -93 24 -16 16 94 23 284 18 167
-4 190 -6 255 -30 125 -47 467 -56 584 -16 24 8 178 15 485 19 248 4 460 11
473 15 32 10 27 24 -13 41 -19 8 -35 16 -35 19 0 6 59 36 90 46 44 13 107 10
120 -6z m-3090 -70 c0 -2 -38 -22 -84 -43 -46 -22 -86 -44 -90 -51 -10 -15
-59 -14 -54 1 6 18 98 66 158 82 62 17 70 18 70 11z m-352 -32 c2 -7 -28 -46
-66 -85 -39 -40 -83 -88 -99 -107 -44 -51 -61 -32 -27 27 36 62 110 159 132
172 22 13 54 9 60 -7z m616 -62 c-32 -19 -56 -41 -63 -59 -7 -17 -24 -41 -38
-54 -14 -12 -33 -39 -43 -59 -10 -19 -47 -69 -81 -110 -97 -115 -94 -105 -93
-394 1 -144 7 -275 14 -310 6 -33 15 -102 19 -153 7 -86 10 -95 40 -126 32
-33 33 -36 21 -71 -9 -28 -9 -43 0 -66 10 -24 10 -33 -4 -54 -9 -13 -27 -27
-41 -31 -33 -8 -32 -30 3 -46 18 -9 42 -41 74 -102 26 -50 62 -104 79 -122
l32 -33 -22 -76 c-20 -65 -21 -82 -12 -126 6 -27 11 -54 11 -59 0 -20 -23 -9
-68 30 -47 42 -81 56 -107 46 -27 -10 -16 -25 48 -71 105 -76 137 -105 137
-125 0 -17 -7 -19 -60 -17 -59 1 -89 -11 -76 -32 4 -6 14 -11 23 -11 19 0 62
-32 153 -111 36 -31 75 -62 88 -68 20 -10 23 -9 32 14 5 14 12 25 15 25 2 0
16 -22 29 -49 14 -26 48 -73 76 -104 78 -86 129 -216 67 -172 -25 18 -53 19
-63 4 -10 -16 11 -31 53 -38 29 -5 43 -14 58 -40 46 -76 70 -95 114 -94 l41 2
-23 -30 c-31 -44 -31 -153 2 -227 13 -29 21 -55 18 -59 -4 -3 -23 9 -44 27
-40 35 -112 72 -125 64 -13 -9 173 -181 220 -205 30 -15 42 -27 42 -42 0 -41
-13 -49 -64 -42 -38 6 -46 5 -46 -9 0 -9 16 -26 35 -38 38 -25 53 -54 36 -71
-8 -8 -30 -2 -81 23 -38 18 -72 31 -75 28 -4 -3 25 -34 64 -69 82 -73 98 -109
108 -239 14 -203 -49 -413 -120 -398 -21 5 -79 -61 -75 -86 4 -27 85 -81 151
-101 66 -20 209 -19 278 1 74 21 121 56 162 119 32 47 44 56 105 79 114 44
143 89 196 305 19 78 46 161 60 185 31 53 121 124 167 132 19 3 43 7 55 9 11
3 26 16 32 30 16 34 53 31 63 -5 13 -46 9 -122 -7 -156 -16 -34 -16 -36 10
-63 25 -26 26 -29 8 -33 -39 -11 -32 -117 13 -194 26 -43 32 -79 16 -88 -8 -5
-29 -56 -66 -159 -21 -59 -65 -104 -131 -133 -34 -15 -59 -34 -73 -57 -11 -18
-32 -39 -46 -45 -26 -12 -26 -32 0 -32 8 0 26 -16 41 -35 51 -67 111 -80 258
-57 93 14 100 14 112 -3 12 -16 15 -16 47 4 48 29 146 135 158 171 13 34 34
42 24 8 -12 -40 -66 -132 -106 -180 -38 -45 -48 -68 -31 -68 5 0 53 39 108 86
54 47 115 94 136 105 45 23 138 155 230 324 l65 120 12 205 c16 292 1 395 -79
518 -52 81 -112 139 -199 191 -52 31 -88 46 -122 49 -55 5 -60 12 -23 36 35
23 29 59 -10 66 -27 5 -28 6 -11 20 13 10 40 15 90 15 64 -1 82 -6 151 -40
103 -51 178 -125 224 -222 24 -52 47 -84 80 -112 61 -51 78 -90 61 -138 -7
-19 -17 -92 -21 -161 -18 -254 -138 -609 -245 -722 -18 -19 -53 -66 -77 -105
-53 -83 -132 -159 -191 -185 -51 -23 -70 -42 -91 -93 -8 -21 -40 -80 -70 -131
-59 -100 -125 -168 -210 -217 -122 -69 -182 -46 -323 126 -28 32 -47 28 -50
-11 0 -16 -2 -33 -2 -38 -1 -4 -12 -1 -26 8 -56 37 -60 3 -10 -91 37 -69 39
-88 5 -58 -21 19 -50 14 -50 -8 0 -8 7 -31 16 -52 8 -20 13 -39 11 -41 -6 -6
-63 58 -104 118 -47 69 -250 298 -264 298 -16 0 16 -52 77 -126 31 -38 74 -95
96 -126 21 -32 52 -68 68 -80 17 -12 30 -30 30 -39 0 -10 10 -30 23 -46 32
-41 140 -258 136 -272 -3 -7 -19 10 -37 37 -32 50 -94 112 -112 112 -18 0 -10
-21 45 -125 65 -120 93 -198 101 -274 6 -56 5 -55 -91 128 -141 269 -222 393
-420 641 -135 169 -244 290 -261 290 -25 0 6 -46 143 -213 228 -276 432 -575
528 -772 36 -75 75 -202 75 -244 0 -20 -19 -11 -25 12 -12 37 -113 235 -173
337 -181 309 -470 689 -630 831 -61 53 -82 65 -82 44 0 -8 11 -20 24 -24 12
-5 32 -24 43 -43 11 -18 67 -91 126 -161 222 -267 402 -513 460 -632 22 -44
70 -133 108 -197 71 -121 133 -278 127 -326 -2 -22 -13 -8 -61 83 -127 239
-294 522 -375 638 -178 255 -359 477 -388 477 -27 0 -13 -30 49 -107 35 -43
95 -121 135 -173 39 -52 106 -139 149 -192 101 -125 188 -264 289 -463 79
-155 154 -336 154 -372 0 -32 -26 6 -113 173 -194 369 -508 833 -683 1012 -74
75 -94 86 -94 52 0 -19 25 -52 160 -215 98 -118 239 -307 305 -410 32 -49 71
-109 87 -133 85 -123 315 -682 275 -670 -22 8 -74 107 -91 174 -52 207 -429
800 -686 1079 -50 55 -95 110 -100 123 -10 22 -50 32 -50 11 0 -6 21 -35 48
-63 80 -88 392 -528 475 -668 194 -329 302 -591 314 -757 l6 -91 -47 0 c-29 0
-48 5 -50 13 -48 171 -141 373 -296 642 -165 287 -296 475 -510 734 -69 85
-96 108 -108 97 -11 -12 28 -72 93 -143 34 -37 69 -83 79 -100 9 -18 35 -55
59 -82 46 -55 76 -99 120 -181 16 -30 62 -102 101 -160 40 -58 88 -132 108
-165 43 -72 258 -529 282 -599 22 -69 21 -106 -3 -106 -15 0 -23 13 -36 56
-23 79 -129 307 -241 518 -117 221 -336 556 -363 556 -38 0 -33 -32 17 -104
76 -109 315 -503 360 -592 103 -207 220 -565 179 -551 -12 4 -51 89 -163 352
-122 287 -361 685 -410 685 -24 0 -11 -30 81 -190 175 -307 311 -586 359 -737
26 -86 50 -202 42 -210 -7 -7 -37 56 -91 192 -26 66 -78 185 -117 265 -74 155
-227 430 -239 430 -4 0 -13 17 -19 38 -7 20 -23 48 -35 62 -13 14 -44 63 -70
110 -54 99 -71 120 -97 120 -25 0 -23 -32 3 -56 12 -10 31 -37 44 -59 12 -22
62 -110 110 -195 49 -85 107 -183 131 -217 48 -71 75 -134 191 -442 78 -207
112 -334 86 -318 -6 4 -25 44 -41 90 -41 113 -178 424 -202 458 -11 15 -20 34
-20 43 0 20 -88 189 -144 276 -23 36 -48 77 -56 91 -63 110 -94 154 -113 157
-31 6 -30 -26 2 -63 17 -20 41 -55 52 -78 12 -23 51 -94 87 -157 35 -63 86
-153 112 -200 67 -118 230 -574 230 -642 0 -30 -26 -56 -41 -41 -5 5 -14 38
-20 73 -5 35 -35 127 -65 204 -29 77 -54 144 -54 149 0 34 -215 452 -246 477
-19 16 -36 2 -28 -23 3 -12 50 -114 104 -227 107 -225 158 -352 195 -493 24
-89 44 -247 32 -247 -12 0 -47 80 -58 132 -6 29 -18 65 -25 80 -8 15 -14 36
-14 46 0 11 -9 31 -20 45 -11 14 -20 37 -20 51 0 34 -36 128 -60 159 -11 14
-23 40 -27 59 -3 18 -14 44 -25 57 -10 13 -18 29 -18 36 0 18 -70 167 -89 188
-9 11 -23 38 -31 60 -11 30 -21 42 -35 42 -30 0 -30 -37 -1 -73 15 -16 26 -36
26 -43 0 -8 23 -57 51 -109 56 -105 85 -172 131 -300 17 -47 37 -94 44 -105 8
-11 14 -31 14 -45 0 -14 6 -34 14 -45 20 -29 36 -116 36 -194 0 -82 -10 -96
-26 -39 -35 120 -65 215 -75 235 -14 26 -39 37 -52 24 -15 -15 9 -114 36 -148
20 -24 22 -40 22 -134 0 -76 -4 -111 -14 -123 -20 -24 -31 -4 -31 55 0 62 -17
145 -36 183 -9 17 -22 49 -29 71 -10 33 -17 41 -40 43 -26 3 -27 2 -22 -25 4
-15 13 -59 21 -98 20 -88 31 -218 22 -242 -7 -17 -8 -17 -22 1 -8 11 -14 41
-14 67 0 38 -5 51 -22 63 -17 12 -25 13 -36 4 -11 -10 -12 -31 -7 -109 7 -96
7 -97 -16 -104 -13 -4 -31 -16 -40 -28 -24 -30 -36 -15 -49 60 -6 38 -18 78
-26 90 -8 12 -14 38 -14 56 0 40 -24 67 -42 49 -9 -9 -7 -45 7 -145 18 -132
16 -193 -6 -154 -6 9 -19 65 -30 125 -21 110 -39 152 -64 152 -19 0 -19 -30 1
-183 11 -88 13 -127 5 -144 -17 -38 -29 -26 -36 34 -11 105 -16 131 -30 150
-21 28 -28 10 -35 -87 -4 -49 -9 -93 -13 -96 -14 -14 -25 10 -29 66 -5 68 -23
96 -57 85 -29 -9 -47 -49 -55 -123 -8 -90 -19 -97 -31 -23 -16 101 -36 89 -68
-38 -15 -57 -27 -50 -27 14 0 43 -9 65 -25 65 -20 0 -28 -18 -36 -78 -5 -34
-17 -66 -34 -88 -15 -20 -29 -34 -31 -32 -2 2 3 28 11 58 17 63 19 100 6 100
-14 0 -26 -21 -51 -85 -40 -103 -62 -111 -53 -20 4 34 2 55 -4 55 -6 0 -27
-30 -46 -67 -70 -132 -88 -138 -57 -18 11 43 20 85 20 93 0 27 -28 -7 -74 -93
-25 -45 -55 -93 -67 -106 l-21 -24 7 25 c22 81 17 123 -10 100 -8 -7 -15 -23
-15 -35 0 -12 -14 -40 -31 -61 -17 -22 -42 -58 -56 -82 -17 -28 -34 -44 -51
-48 -15 -3 -45 -10 -67 -17 -22 -6 -80 -11 -130 -12 -81 0 -97 3 -157 32 -71
33 -168 118 -168 147 0 10 3 16 8 14 4 -2 19 -10 34 -17 32 -16 58 -9 58 17 0
24 -24 46 -75 66 -51 21 -56 31 -49 88 6 46 5 48 -45 101 -61 64 -81 109 -81
179 0 133 122 262 302 322 139 46 242 44 414 -10 87 -27 97 -27 204 -3 74 16
87 28 62 60 l-20 23 -30 -32 c-25 -27 -37 -32 -77 -32 -57 0 -94 18 -130 65
-37 50 -82 75 -131 75 -22 0 -63 7 -90 15 -27 8 -65 15 -84 15 -40 0 -108 29
-129 54 -25 30 8 78 98 141 76 53 121 97 121 116 0 5 -12 12 -28 16 -19 5 -53
-3 -117 -26 -171 -62 -246 -73 -310 -47 -43 18 -45 44 -5 57 17 6 30 15 30 20
0 13 -47 30 -64 23 -23 -9 -26 11 -6 43 23 38 89 71 171 84 111 18 215 -7 280
-66 22 -19 48 -35 60 -35 63 0 145 -82 121 -121 -10 -16 -6 -24 25 -54 21 -19
45 -35 54 -35 24 0 72 -59 120 -145 40 -73 69 -102 89 -90 16 10 12 40 -20
180 -37 156 -70 314 -104 492 -52 270 -88 380 -182 558 -36 69 -66 140 -70
165 -15 104 -73 261 -107 288 -8 7 -19 28 -22 45 -10 51 -27 88 -38 84 -17 -5
-28 -59 -22 -106 5 -33 4 -42 -7 -39 -18 6 -40 185 -33 273 3 39 9 97 14 130
5 33 10 128 10 211 1 177 10 214 74 311 25 37 50 85 56 105 7 20 23 44 36 52
14 9 36 38 49 65 14 26 37 56 52 66 15 10 46 35 69 56 54 50 108 73 135 59 11
-6 20 -15 20 -20 0 -13 -34 -30 -60 -30 -11 0 -23 -7 -26 -15 -9 -23 15 -45
47 -45 15 0 39 -5 53 -11 19 -9 45 -6 128 14 57 14 120 28 141 32 30 5 60 28
161 124 85 82 136 123 162 131 22 7 53 22 69 34 61 42 161 130 178 158 17 25
17 29 3 34 -13 5 -9 15 24 54 21 26 58 80 81 121 23 41 53 87 68 102 l26 28
-33 30 c-48 43 -78 39 -101 -14 -24 -56 -38 -66 -110 -79 -112 -21 -310 20
-428 89 -56 32 -55 14 1 -41 36 -36 52 -44 96 -50 136 -18 155 -62 27 -60 -58
0 -85 6 -137 31 -75 34 -140 87 -140 113 0 30 -26 41 -118 50 -86 8 -141 24
-127 38 3 3 57 5 120 3 121 -2 143 2 125 24 -7 9 -8 15 -1 19 11 7 86 -27 211
-94 41 -22 103 -49 137 -61 70 -23 138 -23 138 1 0 11 -17 17 -60 22 -60 7
-143 44 -236 104 -38 25 -41 29 -22 32 12 2 54 -10 95 -27 77 -32 128 -47 128
-38 0 3 -25 20 -55 37 -37 21 -55 38 -55 51 0 17 7 19 58 19 60 0 82 11 82 41
0 26 -17 33 -99 39 -78 5 -106 24 -54 36 72 15 93 26 93 45 0 16 -7 19 -42 19
-64 0 -116 18 -181 62 -102 69 -226 119 -368 148 -41 8 -64 19 -83 40 -18 21
-36 30 -56 30 -30 0 -42 -21 -20 -35 21 -13 9 -23 -34 -29 -25 -4 -91 -20
-148 -37 -57 -16 -134 -34 -171 -39 -80 -12 -138 -39 -189 -87 -25 -24 -42
-34 -54 -29 -14 6 -16 16 -11 71 9 92 60 236 171 485 139 308 158 349 176 364
34 28 164 76 259 96 113 23 131 28 131 41 0 34 -214 45 -284 16 -21 -10 -44
-17 -51 -17 -20 0 -37 63 -29 105 5 28 13 39 40 50 19 8 50 26 69 40 56 44
116 56 310 65 99 4 188 11 198 15 45 18 0 36 -139 55 -88 11 -146 4 -317 -43
l-89 -24 7 36 c3 20 15 51 26 69 13 23 23 68 29 135 10 95 14 109 67 212 153
301 293 433 625 595 204 99 271 123 503 180 205 50 192 48 250 49 l50 1 -51
-29z m-926 -143 c21 -21 13 -28 -35 -28 l-48 0 30 20 c35 23 37 24 53 8z
m4287 -27 c22 -10 54 -33 70 -51 l30 -32 -65 7 -65 7 30 -31 c16 -18 80 -58
142 -89 145 -73 149 -88 15 -57 -34 8 -90 26 -123 41 -84 35 -99 20 -39 -41
56 -57 78 -67 241 -110 194 -51 359 -138 359 -189 0 -24 -17 -20 -58 14 -67
53 -154 84 -392 140 -52 12 -107 29 -122 36 -51 26 -101 78 -124 129 -13 27
-35 70 -49 95 -34 60 -32 92 6 124 37 31 86 34 144 7z m-4559 -207 c-17 -25
-46 -33 -46 -12 0 6 12 27 28 47 26 34 27 35 30 13 2 -13 -4 -34 -12 -48z
m5392 -204 c17 -11 32 -24 32 -30 0 -16 -10 -12 -47 20 -39 34 -33 39 15 10z
m137 -117 c36 -25 63 -48 61 -50 -13 -13 -136 66 -136 88 0 15 7 11 75 -38z
m-288 -158 c182 -89 304 -246 320 -410 8 -92 -11 -84 -48 20 -16 44 -41 94
-55 110 l-25 30 6 -40 c15 -98 17 -195 5 -244 -6 -28 -15 -49 -19 -46 -5 2
-11 42 -14 87 -9 125 -57 261 -84 235 -3 -4 0 -48 6 -99 34 -268 -88 -521
-299 -620 -89 -43 -177 -65 -192 -50 -12 12 11 25 135 76 109 43 173 80 191
109 8 12 17 46 20 76 8 58 21 91 36 91 6 0 10 -7 10 -15 0 -8 4 -15 9 -15 12
0 32 60 25 72 -4 5 -1 35 6 66 6 32 10 86 8 121 -3 71 -5 71 -57 5 -33 -42
-35 -22 -7 61 28 81 34 148 14 164 -57 47 -77 61 -87 61 -6 0 -15 10 -20 23
-5 13 -21 37 -36 55 l-26 32 32 45 c18 25 37 45 43 45 5 0 52 -20 103 -45z
m232 -41 c24 -31 26 -44 8 -44 -12 0 -22 14 -45 63 -8 18 19 4 37 -19z m261
-126 c91 -61 238 -240 261 -320 8 -29 59 -315 59 -333 0 -4 -18 9 -40 29 -57
52 -73 42 -67 -43 2 -36 10 -99 18 -138 12 -68 12 -75 -8 -110 -11 -21 -26
-56 -33 -78 -16 -50 -50 -95 -88 -117 -48 -28 -48 -12 -2 102 29 72 31 166 6
205 -17 27 -20 27 -32 11 -7 -10 -24 -68 -39 -128 -29 -124 -40 -151 -84 -192
-35 -34 -40 -25 -11 19 28 42 26 46 -20 39 -51 -8 -52 7 -5 69 52 68 66 117
34 117 -19 0 -88 -73 -99 -105 -13 -40 -77 -100 -134 -126 -41 -18 -116 -26
-116 -11 0 4 30 26 65 50 71 46 120 105 135 163 6 21 14 90 19 153 7 91 13
123 32 157 30 54 45 58 53 17 5 -27 8 -30 20 -17 23 24 36 79 36 153 0 88 -18
157 -61 235 -18 33 -30 64 -25 68 15 15 82 -75 102 -134 19 -57 21 -169 11
-422 -2 -53 -1 -55 28 -63 46 -12 65 -2 65 35 0 24 3 28 12 19 18 -18 43 -15
63 8 35 39 18 223 -26 278 -23 29 -25 62 -4 62 8 0 30 -14 49 -31 56 -48 74
-18 35 56 -29 55 -83 121 -200 247 -54 58 -99 109 -99 112 0 15 33 2 90 -36z
m-640 -72 c0 -16 -18 -31 -27 -22 -8 8 5 36 17 36 5 0 10 -6 10 -14z m-3920
-111 c0 -26 -30 -75 -45 -75 -19 0 -19 9 0 54 15 36 45 50 45 21z m4365 -302
c-7 -42 -23 -66 -36 -58 -8 6 -6 16 13 68 16 41 31 34 23 -10z m-425 -23 c0
-25 -41 -89 -79 -123 -53 -48 -106 -74 -198 -98 -140 -35 -251 -18 -323 50
-69 66 -54 72 102 45 149 -26 238 -6 396 85 91 53 102 58 102 41z m-5596 -69
c3 -5 -1 -14 -8 -20 -16 -13 -32 2 -21 19 8 12 22 13 29 1z m6700 -77 c3 -9 6
-27 6 -42 0 -34 -17 -17 -26 26 -7 33 9 46 20 16z m-895 -31 c-12 -33 -59
-103 -69 -103 -27 0 -12 43 36 99 32 38 47 40 33 4z m817 -68 c11 -18 19 -61
24 -141 8 -116 14 -131 58 -167 17 -15 22 -29 22 -68 0 -27 -3 -49 -7 -49 -5
1 -29 45 -55 100 -39 80 -48 110 -48 153 0 29 -7 79 -15 110 -8 32 -15 65 -15
72 0 23 18 18 36 -10z m-4110 -36 c180 -56 356 -178 414 -289 30 -56 232 -255
327 -321 59 -41 150 -74 317 -114 133 -32 186 -48 351 -108 39 -14 103 -36
143 -48 127 -38 86 -54 -143 -54 l-160 0 -122 47 c-68 26 -151 55 -185 64 -89
23 -222 21 -335 -6 -88 -21 -106 -31 -82 -45 13 -9 3 -57 -23 -106 -28 -55
-44 -212 -27 -263 20 -55 41 -66 76 -38 76 60 202 116 247 110 17 -2 10 -10
-35 -41 -31 -20 -78 -56 -103 -79 -53 -46 -49 -58 21 -58 23 0 44 -4 48 -9 7
-13 -54 -62 -133 -105 -71 -39 -133 -92 -194 -166 -36 -44 -36 -44 -74 -32
-21 6 -42 8 -45 4 -4 -4 -17 -74 -29 -157 -25 -177 -36 -227 -62 -278 -24 -48
-30 -44 -17 8 14 54 24 413 12 400 -6 -5 -15 -42 -22 -80 -7 -39 -16 -77 -21
-85 -16 -24 -12 51 10 200 21 141 26 276 11 251 -5 -7 -14 -10 -20 -7 -24 16
-8 58 54 141 36 48 65 91 65 96 0 18 -30 8 -72 -24 -56 -43 -120 -167 -154
-302 -28 -111 -45 -317 -26 -329 15 -9 28 39 52 188 11 72 23 132 25 135 14
13 15 -19 5 -130 -26 -296 -69 -491 -140 -635 -35 -71 -45 -83 -88 -107 -85
-46 -107 -32 -48 33 59 65 96 196 115 410 13 138 14 400 2 419 -11 17 -28 -31
-37 -109 -8 -70 -23 -100 -24 -47 0 98 48 255 131 418 22 45 38 84 35 87 -3 3
-17 0 -31 -6 -55 -25 -47 -8 36 84 66 73 70 79 48 82 -37 6 -146 -28 -188 -59
-51 -37 -84 -96 -106 -189 -22 -92 -34 -111 -51 -78 -24 47 -25 93 -4 159 11
35 20 72 20 82 0 20 -20 23 -38 5 -17 -17 -25 -4 -17 32 11 48 70 107 149 148
58 30 67 37 47 40 -30 5 -91 -21 -154 -65 -54 -38 -67 -41 -67 -14 0 21 72 91
116 114 16 8 92 24 169 36 161 25 215 38 215 51 0 12 10 11 -145 19 l-130 6
64 12 c77 15 92 26 60 45 -25 13 -195 18 -291 8 -59 -6 -66 9 -15 34 28 13 85
22 205 32 145 12 173 12 216 0 57 -17 66 -14 47 16 -13 20 -12 20 56 13 46 -4
65 -3 58 3 -5 6 -63 38 -127 71 -115 60 -119 61 -198 61 -112 0 -154 -20 -337
-164 -38 -30 -38 -12 1 52 39 65 45 88 20 78 -9 -3 -28 -9 -42 -12 -25 -5 -23
-2 17 35 23 22 68 53 100 68 31 14 68 35 83 45 38 26 70 23 232 -22 178 -49
223 -59 231 -52 11 11 -29 42 -77 58 -30 10 -66 33 -93 60 -33 32 -56 45 -86
50 -26 5 -53 19 -76 40 -42 40 -86 54 -169 54 -51 0 -72 -6 -127 -35 -69 -37
-147 -48 -147 -22 0 19 49 64 84 77 153 57 442 -2 605 -124 35 -26 61 -33 61
-17 0 38 -227 166 -350 197 -193 49 -445 -64 -554 -248 -49 -84 -67 -48 -22
47 53 114 234 242 390 275 61 13 195 3 272 -21z m3345 -38 c-47 -90 -143 -162
-273 -202 -64 -20 -133 -25 -142 -10 -4 5 -38 22 -76 37 -68 26 -110 57 -97
71 4 3 28 4 54 2 27 -2 98 -4 158 -4 128 0 164 13 306 110 46 31 85 52 87 47
2 -6 -6 -29 -17 -51z m879 -1 c4 -46 0 -71 -10 -65 -5 3 -10 32 -10 63 1 56
15 58 20 2z m-799 -33 c-26 -26 -28 -7 -4 30 15 23 18 24 21 9 2 -10 -5 -28
-17 -39z m-3533 -114 c-10 -2 -26 -2 -35 0 -10 3 -2 5 17 5 19 0 27 -2 18 -5z
m-418 -54 c0 -17 -40 -79 -51 -79 -13 0 -12 6 11 50 19 38 40 53 40 29z m4458
-63 c-7 -27 -19 -51 -25 -54 -18 -5 -16 9 9 75 25 66 34 53 16 -21z m-1076 34
c10 0 25 -14 34 -31 l16 -31 70 7 c69 6 72 6 92 -20 17 -22 33 -28 89 -35 38
-4 76 -15 86 -24 10 -9 27 -16 39 -16 12 0 44 -9 72 -20 28 -11 64 -20 81 -20
20 0 28 -4 23 -11 -19 -31 -359 21 -426 65 -13 8 -61 18 -113 22 -119 9 -125
13 -125 76 0 47 1 50 23 44 12 -3 30 -6 39 -6z m1204 -7 c5 -10 9 -84 9 -165
0 -140 1 -147 24 -171 18 -20 26 -45 34 -109 21 -161 6 -234 -75 -359 -106
-165 -289 -279 -448 -279 -52 0 -49 19 6 35 42 12 143 61 158 76 17 16 -26 10
-82 -11 -52 -20 -162 -28 -162 -12 0 12 35 28 96 45 68 19 154 77 241 163 57
57 80 90 116 165 25 52 51 120 58 152 11 52 11 62 -5 88 -16 27 -17 48 -11
197 7 172 10 202 25 202 4 0 12 -8 16 -17z m237 -102 c-2 -49 -51 -162 -52
-121 -2 42 32 171 43 167 6 -2 10 -23 9 -46z m-3677 -5 c35 -35 51 -92 18 -65
-26 22 -76 99 -63 99 6 0 26 -15 45 -34z m3330 -170 c-29 -95 -146 -230 -239
-275 -79 -38 -224 -61 -284 -45 -43 12 -23 21 55 27 82 6 173 34 179 54 3 9
-21 11 -99 6 -113 -6 -181 7 -268 53 l-45 24 70 -8 c39 -4 117 -7 175 -6 91 1
113 4 170 28 36 16 85 35 110 43 72 25 73 26 110 95 19 36 42 73 50 83 13 16
15 15 21 -10 5 -15 2 -45 -5 -69z m-3841 60 c44 -29 18 -35 -58 -14 -113 32
-121 39 -40 35 45 -3 82 -11 98 -21z m2551 -94 c35 -28 53 -63 73 -145 25 -95
20 -115 -56 -216 -122 -163 -211 -238 -316 -265 -82 -21 -266 -30 -365 -17
-73 9 -93 17 -159 58 -41 26 -77 51 -80 56 -3 5 17 6 46 2 68 -9 68 9 -1 39
-29 13 -61 26 -71 30 -29 10 -15 27 37 47 27 10 57 26 67 35 18 16 20 16 32 1
48 -64 442 -42 570 31 60 35 21 42 -66 12 -77 -27 -235 -27 -375 0 -56 11
-131 20 -165 20 -141 1 -325 70 -470 178 -74 55 -78 57 -151 67 -62 8 -96 21
-96 36 0 9 23 10 83 7 111 -8 254 -66 289 -117 55 -83 132 -102 446 -108 l243
-5 68 45 c73 48 144 87 161 87 5 0 10 -9 10 -20 0 -29 21 -25 87 20 58 38 83
72 83 109 0 10 3 21 7 24 12 12 48 7 69 -11z m458 -58 c9 -3 16 -10 16 -15 0
-14 -26 -10 -40 6 -13 16 -3 20 24 9z m-5204 -35 c-118 -43 -173 -59 -203 -59
-16 0 -49 -11 -72 -25 -54 -31 -65 -21 -23 22 47 49 161 79 303 81 l50 1 -55
-20z m6336 -134 c5 -35 4 -37 -7 -20 -13 19 -39 135 -38 165 1 22 38 -99 45
-145z m-1146 61 c37 -35 102 -82 143 -105 98 -54 106 -68 22 -37 -137 52 -255
132 -255 174 0 18 8 32 18 32 2 0 35 -29 72 -64z m-4945 16 c18 -11 -50 -22
-179 -28 -170 -9 -159 15 19 39 35 5 146 -3 160 -11z m-938 -76 c-4 -9 -11
-16 -17 -16 -15 0 -24 26 -16 47 6 15 8 15 23 1 9 -9 13 -24 10 -32z m1053 22
c39 -24 29 -33 -22 -20 -18 4 -34 16 -36 25 -5 23 16 21 58 -5z m1366 -103
c-8 -19 -20 -43 -25 -52 -9 -15 -10 -13 -11 12 0 31 24 75 41 75 5 0 3 -16 -5
-35z m1259 2 c7 -10 39 -28 71 -40 64 -25 82 -47 37 -47 -15 0 -37 -7 -47 -15
-11 -8 -42 -15 -70 -16 -78 0 -120 -18 -124 -51 -2 -18 -9 -28 -20 -28 -9 0
-55 -14 -102 -30 -47 -16 -88 -26 -92 -22 -11 11 6 66 36 117 30 51 76 76 186
102 l75 18 -67 3 c-46 2 -84 -3 -127 -18 -70 -23 -71 -23 -71 -10 0 16 44 40
91 50 24 5 81 8 127 7 67 -2 86 -5 97 -20z m2345 -53 c149 -69 265 -71 470 -9
25 8 25 8 6 -13 -30 -34 -114 -69 -199 -82 -128 -21 -263 11 -334 78 -61 56
-34 69 57 26z m-479 -71 c-39 -76 -166 -179 -284 -233 -89 -40 -160 -54 -262
-54 -93 0 -205 25 -205 45 0 7 7 8 18 4 9 -4 76 -10 147 -12 100 -4 145 -2
193 11 133 34 240 103 314 203 23 32 53 74 67 93 l26 35 3 -27 c2 -14 -6 -44
-17 -65z m1425 -67 c-3 -39 -17 -111 -31 -161 -14 -49 -30 -126 -36 -169 -15
-125 -73 -210 -181 -268 -40 -21 -56 -23 -200 -23 -143 0 -181 5 -165 21 3 3
52 12 109 19 58 8 127 21 154 31 162 54 293 162 255 208 -20 24 -29 20 -45
-18 -18 -43 -93 -95 -191 -132 -54 -21 -89 -27 -154 -28 -53 -1 -85 3 -88 10
-2 7 37 22 94 39 227 64 278 104 368 289 34 72 68 156 75 186 16 77 18 82 31
74 8 -5 10 -29 5 -78z m-951 15 l89 -46 141 -5 c153 -5 159 -13 38 -44 -104
-27 -152 -22 -275 31 -110 47 -147 76 -134 109 8 20 27 14 141 -45z m1070 38
c16 -48 -42 -339 -67 -339 -5 0 -7 12 -4 28 3 15 12 88 20 162 8 74 18 143 21
153 9 23 22 22 30 -4z m-3447 -46 c-4 -22 -48 -31 -48 -10 0 19 10 27 32 27
13 0 18 -6 16 -17z m-3060 -23 c122 -31 159 -46 227 -97 35 -26 101 -68 147
-93 66 -36 82 -50 80 -66 -2 -17 2 -20 31 -16 27 3 35 -1 43 -19 8 -17 24 -26
63 -34 59 -11 68 -29 17 -33 -75 -7 -240 56 -383 146 -77 49 -227 99 -318 107
-107 10 -115 12 -115 39 0 14 12 38 26 55 32 38 69 40 182 11z m5188 -1 c4 -6
13 -75 20 -152 l13 -141 -26 -34 c-66 -87 -322 -241 -463 -278 -72 -19 -183
-23 -305 -9 l-80 9 166 12 c169 14 268 36 277 63 4 10 0 12 -14 6 -77 -31
-376 -32 -464 -1 -25 9 -77 16 -117 16 -66 0 -96 11 -78 28 4 4 112 5 240 4
246 -4 306 6 173 28 -40 7 -99 21 -131 31 -66 22 -79 23 -167 14 -44 -5 -80
-3 -110 6 l-45 13 55 7 c93 12 231 9 325 -6 198 -33 386 -14 522 52 68 32 183
141 183 172 0 27 -14 27 -40 -1 -11 -12 -22 -20 -24 -17 -7 6 66 189 75 189 4
0 11 -5 15 -11z m148 -58 c10 -11 28 -22 42 -25 13 -4 24 -12 24 -20 0 -25 38
-47 106 -59 76 -15 73 -31 -6 -30 -89 1 -210 78 -210 133 0 25 22 26 44 1z
m-2059 -47 c33 -21 32 -33 -10 -98 -52 -81 -120 -223 -139 -288 -11 -39 -25
-63 -41 -74 -33 -21 -39 -65 -22 -146 8 -38 11 -68 7 -68 -16 0 -50 101 -50
148 0 44 4 52 39 83 l38 35 -5 125 -5 126 47 45 c25 25 46 54 46 65 0 28 28
63 51 63 11 0 31 -7 44 -16z m814 -134 c31 -12 87 -24 124 -27 73 -6 91 -18
62 -40 -28 -20 -117 -16 -181 8 -67 25 -154 103 -154 138 0 21 3 20 46 -18 25
-22 71 -50 103 -61z m-3126 25 c1 -6 -11 -11 -28 -13 -29 -2 -29 -2 -10 13 20
16 35 16 38 0z m27 -65 c0 -12 -44 -24 -62 -17 -8 3 -4 9 12 15 32 14 50 14
50 2z m-1010 -52 c4 -13 15 -50 22 -82 7 -33 18 -61 24 -63 7 -2 10 6 7 22 -5
23 -2 25 30 25 24 0 37 5 42 17 5 14 10 8 25 -26 24 -53 43 -49 50 10 l6 44
23 -38 c21 -34 33 -41 86 -49 11 -2 21 -11 23 -20 4 -23 -59 -54 -148 -74
-129 -29 -174 -2 -216 130 -26 82 -25 126 1 126 9 0 20 -10 25 -22z m180 -7
c0 -5 -7 -12 -16 -15 -22 -9 -24 -8 -24 9 0 8 9 15 20 15 11 0 20 -4 20 -9z
m3380 -64 c47 -83 73 -210 74 -362 0 -113 -4 -143 -28 -230 -15 -55 -35 -115
-44 -133 -22 -46 -206 -222 -210 -201 -1 9 13 52 32 95 44 100 59 189 46 268
-12 75 -57 171 -106 227 -21 24 -44 51 -51 60 -10 12 -7 26 17 77 30 64 50 79
50 38 0 -13 7 -29 15 -36 8 -7 15 -23 15 -36 0 -12 19 -44 42 -71 23 -26 50
-67 60 -91 19 -41 21 -43 38 -27 34 31 52 225 20 225 -4 0 -14 -19 -22 -42
-13 -41 -38 -64 -38 -35 0 8 -7 20 -15 27 -16 13 -19 48 -9 99 8 38 19 40 32
4 l10 -28 12 30 c12 30 8 143 -6 194 -12 42 32 7 66 -52z m2200 64 c0 -15 -36
-19 -92 -9 -29 5 -55 12 -57 14 -2 2 30 4 72 4 43 0 77 -4 77 -9z m-3726 -53
c-5 -18 -9 -184 -10 -368 0 -326 -1 -337 -24 -394 -23 -61 -92 -146 -116 -146
-22 0 -16 19 14 49 48 49 53 83 63 420 9 306 18 387 51 454 16 31 31 20 22
-15z m1331 -27 c-4 -23 -11 -43 -16 -47 -12 -7 -11 -2 2 52 14 55 24 51 14 -5z
m2075 -96 c0 -94 -57 -225 -136 -311 -53 -58 -53 -56 8 66 26 52 59 140 74
195 14 55 28 104 31 109 10 15 23 -18 23 -59z m-140 15 c-24 -48 -26 -97 -3
-122 15 -17 15 -21 -1 -56 -26 -54 -93 -138 -140 -175 -22 -18 -37 -26 -33
-19 13 20 -18 15 -134 -23 -86 -28 -125 -35 -186 -35 -106 0 -125 15 -31 24
100 10 151 23 233 61 67 30 104 59 92 71 -3 3 -48 -8 -100 -25 -148 -47 -339
-51 -467 -9 -30 9 -32 12 -15 18 11 4 43 4 70 -1 82 -13 236 -10 300 6 145 37
274 127 372 261 53 72 73 84 43 24z m295 -107 c-25 -38 -29 -20 -9 34 18 44
19 46 22 20 2 -16 -4 -40 -13 -54z m-75 4 c0 -17 -29 -57 -41 -57 -12 0 -12
27 1 51 12 21 40 26 40 6z m-5284 -32 c-35 -26 -144 -34 -139 -10 3 14 40 23
103 24 50 0 53 -1 36 -14z m-878 -98 c27 -41 28 -53 1 -67 -16 -9 -19 -17 -14
-43 5 -25 87 -332 112 -419 3 -10 9 -18 15 -18 15 0 -14 222 -43 328 -11 40
-19 78 -16 85 6 19 42 -87 71 -208 15 -60 31 -121 37 -135 11 -24 12 -24 20
-5 10 25 11 256 1 271 -4 6 -15 14 -25 17 -52 19 37 48 100 32 31 -7 29 -17
-13 -87 -24 -39 -37 -73 -38 -97 -1 -36 8 -52 54 -111 18 -24 18 -28 5 -85 -8
-33 -15 -83 -15 -110 0 -28 -7 -75 -15 -105 -9 -30 -20 -70 -25 -88 -4 -19 -5
-82 0 -140 4 -59 5 -110 3 -115 -2 -4 -18 3 -34 17 -21 18 -46 26 -94 31 -122
13 -179 -16 -81 -41 56 -15 64 -20 47 -37 -7 -7 -40 -12 -81 -12 -66 0 -83 -6
-60 -20 5 -3 60 -10 122 -16 86 -7 119 -14 140 -29 15 -11 32 -20 38 -20 17 0
40 -65 40 -115 0 -64 -17 -126 -44 -160 -25 -31 -56 -29 -56 4 0 23 -18 31
-73 31 -23 0 -60 9 -83 19 -23 10 -59 22 -81 26 -55 9 -184 -10 -306 -46 -124
-36 -207 -45 -266 -29 -118 32 -124 142 -16 290 37 50 66 119 162 385 67 185
181 424 257 536 130 195 218 319 224 319 4 0 17 -15 30 -33z m5215 26 c-7 -2
-21 -2 -30 0 -10 3 -4 5 12 5 17 0 24 -2 18 -5z m-214 -118 c38 -122 58 -144
187 -208 84 -42 100 -58 85 -86 -18 -32 -112 -60 -237 -71 -144 -11 -201 -35
-264 -109 -25 -29 -57 -67 -72 -84 l-27 -32 -1 25 c0 31 54 147 83 178 12 13
45 35 72 49 110 56 128 83 54 83 -83 0 -27 32 79 45 29 3 65 10 80 16 l27 11
-28 24 c-60 51 -137 25 -261 -88 -114 -104 -122 -87 -19 40 78 96 47 127 -41
40 -55 -55 -79 -106 -128 -268 l-23 -75 -3 46 c-7 106 42 251 123 364 60 85
122 125 191 125 44 0 54 4 68 25 9 14 21 23 26 20 5 -3 18 -35 29 -70z m1281
26 c0 -90 -122 -246 -235 -302 -70 -34 -191 -53 -183 -29 2 8 32 19 67 26 77
16 144 58 213 132 45 50 118 180 118 212 0 6 5 8 10 5 6 -3 10 -23 10 -44z
m-5200 15 c0 -8 -4 -17 -9 -21 -12 -7 -24 12 -16 25 9 15 25 12 25 -4z m5110
-22 c0 -22 -142 -163 -211 -208 -67 -44 -174 -82 -258 -92 -86 -9 -77 8 17 35
182 52 201 63 337 188 55 51 103 93 108 93 4 0 7 -7 7 -16z m528 9 c-10 -2
-26 -2 -35 0 -10 3 -2 5 17 5 19 0 27 -2 18 -5z m-99 -95 c16 -43 22 -98 11
-98 -5 0 -10 12 -10 28 -1 15 -7 38 -15 52 -17 30 -18 40 -5 40 6 0 14 -10 19
-22z m-2677 -95 c52 -55 64 -81 44 -101 -25 -25 -64 -2 -68 40 -2 27 -7 33
-25 31 -19 -2 -23 2 -23 25 0 54 23 56 72 5z m1491 -20 c-7 -2 -19 -2 -25 0
-7 3 -2 5 12 5 14 0 19 -2 13 -5z m801 -64 c-15 -16 -32 -29 -36 -29 -13 0 20
58 39 69 30 16 28 -8 -3 -40z m226 -15 c0 -26 -100 -122 -177 -170 -123 -77
-229 -107 -297 -84 -55 18 -43 29 32 28 124 0 253 60 357 169 73 75 85 84 85
57z m-2243 -108 c-3 -8 -11 -33 -17 -55 -10 -37 -26 -59 -35 -49 -5 4 20 92
30 108 10 16 28 12 22 -4z m1143 -19 c23 -38 52 -56 141 -87 75 -26 115 -52
105 -69 -12 -18 -61 -13 -81 9 -24 26 -82 27 -109 1 -31 -28 -168 -62 -272
-68 -95 -6 -164 1 -164 17 0 8 81 23 190 35 72 8 122 24 117 38 -3 7 -11 11
-18 9 -8 -2 -79 -7 -159 -11 -123 -7 -154 -12 -205 -34 -33 -14 -62 -23 -64
-21 -3 2 6 15 19 29 31 33 101 52 220 60 52 4 112 11 132 16 45 11 98 54 98
78 0 41 25 41 50 -2z m570 -53 c-66 -32 -81 -35 -130 -30 -62 6 -124 25 -115
35 5 5 199 24 295 29 16 1 -3 -12 -50 -34z m-1500 -6 c0 -16 -37 -78 -46 -78
-10 0 4 61 17 77 14 16 29 17 29 1z m2004 -149 c-21 -57 -46 -105 -56 -110
-10 -5 -19 -6 -19 -2 -1 4 -2 15 -3 23 -2 24 -44 14 -108 -25 -31 -20 -78 -39
-105 -45 -64 -12 -165 -46 -226 -77 -51 -25 -61 -26 -52 -1 9 23 71 53 185 88
205 63 303 121 372 222 57 84 61 57 12 -73z m301 63 c15 -92 8 -159 -25 -253
-19 -51 -36 -87 -38 -79 -4 12 19 132 38 194 8 25 7 28 -10 23 -25 -7 -25 -4
5 131 8 34 23 26 30 -16z m-2935 12 c0 -24 -19 -54 -35 -54 -19 0 -19 20 1 48
18 26 34 29 34 6z m2709 -175 c-40 -75 -141 -185 -224 -245 -57 -40 -179 -94
-214 -94 -26 0 10 29 49 40 36 10 68 35 58 45 -3 3 -21 -2 -41 -10 -21 -8 -72
-18 -114 -21 -70 -5 -76 -4 -60 10 10 8 51 19 90 26 40 6 86 13 103 16 17 2
68 31 113 64 45 32 95 61 110 65 16 3 38 16 49 28 22 24 62 96 62 112 0 5 10
26 22 45 l23 35 3 -27 c2 -17 -9 -51 -29 -89z m-1056 94 c-7 -2 -21 -2 -30 0
-10 3 -4 5 12 5 17 0 24 -2 18 -5z m562 -14 c5 -5 -10 -9 -42 -9 -50 0 -70 9
-55 24 9 10 84 -2 97 -15z m-700 -29 c-4 -6 -25 -20 -48 -32 -53 -26 -123 -28
-202 -3 l-60 19 132 6 c73 3 136 9 139 13 11 11 46 8 39 -3z m375 0 c0 -15
-28 -25 -128 -49 -51 -13 -140 -43 -198 -68 -146 -63 -216 -67 -343 -24 -51
17 -101 31 -111 31 -11 0 -22 5 -25 10 -10 16 36 12 170 -15 72 -14 138 -22
157 -19 18 4 86 29 151 56 167 70 327 108 327 78z m-1240 -49 c5 -11 10 -40
10 -65 0 -37 -5 -48 -27 -66 -35 -26 -102 -70 -109 -70 -3 0 6 19 20 43 13 23
37 72 51 110 29 71 38 79 55 48z m1120 -39 c0 -16 -34 -40 -94 -66 -62 -28
-78 -27 -55 0 37 46 149 94 149 66z m110 -96 c-12 -12 -40 0 -40 19 0 9 7 32
17 53 l16 37 8 -50 c5 -28 4 -54 -1 -59z m-1062 73 c5 -12 33 -38 62 -58 31
-20 83 -71 119 -116 58 -74 70 -83 148 -118 l85 -39 213 -13 c117 -7 222 -18
234 -24 27 -15 26 -34 -3 -97 -35 -75 -49 -79 -45 -13 6 77 -14 71 -80 -25
-60 -87 -131 -166 -149 -166 -23 0 -11 31 19 49 17 10 41 34 54 53 29 43 56
120 45 132 -5 4 -47 -26 -95 -68 -88 -77 -169 -123 -233 -133 -48 -8 -35 10
30 43 52 27 168 131 168 152 0 22 -25 12 -51 -21 -27 -34 -269 -172 -290 -165
-6 2 41 38 105 81 63 43 127 92 142 110 l27 32 -26 3 c-25 3 -73 -14 -202 -72
l-60 -27 63 63 c54 55 75 88 57 88 -15 0 -77 -38 -151 -91 -44 -33 -84 -59
-87 -59 -17 0 -2 22 64 94 41 46 69 84 67 94 -9 44 -169 -18 -245 -94 -24 -24
-43 -40 -43 -37 0 4 22 41 49 82 52 79 70 125 53 135 -15 9 -56 -29 -117 -109
-31 -41 -58 -75 -60 -75 -7 0 11 42 50 120 20 40 34 75 30 78 -3 3 -26 -14
-50 -38 -53 -52 -58 -45 -11 19 50 68 66 105 66 151 0 74 -8 65 -137 -155 -39
-66 -79 -145 -87 -175 -25 -83 -30 -187 -16 -295 7 -52 10 -98 7 -101 -3 -3
-17 17 -32 45 -35 70 -51 192 -36 281 12 75 58 187 86 210 31 25 112 157 130
210 18 54 48 79 98 80 19 0 30 -6 35 -21z m1682 -19 c0 -18 -94 -64 -174 -86
-45 -12 -105 -29 -133 -37 -53 -16 -81 -7 -43 13 12 6 67 26 123 45 56 18 127
42 157 54 63 23 70 25 70 11z m-793 -78 c15 -9 5 -25 -24 -41 -32 -16 -200
-31 -256 -22 -27 5 -55 15 -64 24 -15 14 -14 16 8 21 13 3 57 7 97 10 69 6 72
5 72 -15 0 -24 1 -24 90 10 63 23 61 23 77 13z m1158 -152 c-24 -47 -92 -110
-142 -132 -60 -26 -65 -17 -10 21 53 36 94 85 133 161 l29 55 3 -37 c2 -20 -4
-51 -13 -68z m-1410 -9 c23 -11 32 -20 22 -20 -20 -1 -87 25 -87 33 0 11 25 5
65 -13z m-1030 -103 c-7 -37 -19 -77 -26 -89 -8 -16 -10 -61 -5 -153 4 -101 3
-125 -5 -106 -16 35 -16 274 0 330 13 45 39 95 46 88 2 -2 -2 -34 -10 -70z
m1528 -84 c70 -24 97 -62 97 -134 0 -58 -15 -110 -31 -110 -5 0 -6 26 -3 58 7
72 -12 137 -41 137 -16 0 -22 -11 -32 -61 -24 -120 -92 -255 -159 -313 -30
-27 -64 -41 -64 -26 0 3 22 29 50 59 68 76 100 147 115 256 6 45 6 44 -40 -40
-54 -98 -127 -199 -132 -183 -3 7 12 48 31 92 39 88 66 183 66 228 0 16 5 34
12 41 17 17 76 15 131 -4z m233 -50 c8 -42 -2 -72 -18 -56 -13 13 -38 104 -31
115 9 15 43 -26 49 -59z m419 56 c-9 -14 -65 -42 -65 -33 0 9 50 42 63 43 5 0
5 -5 2 -10z m-837 -62 c15 -15 16 -64 2 -73 -6 -4 -22 -29 -35 -56 -27 -51
-244 -279 -267 -279 -16 0 -93 -155 -114 -230 l-16 -55 -20 25 c-46 56 3 150
178 340 178 193 206 232 237 323 7 20 18 22 35 5z m942 -2 c0 -19 -52 -61
-111 -92 -100 -50 -92 -24 16 50 88 59 95 63 95 42z m-1836 -38 c-4 -7 -20
-29 -34 -48 -57 -74 -72 -118 -81 -240 -5 -63 -12 -133 -15 -155 -7 -39 -8
-38 -21 40 -15 83 -23 102 -42 91 -28 -18 -6 -182 36 -279 14 -31 23 -61 19
-65 -11 -10 -45 35 -74 98 -21 45 -25 68 -25 140 1 168 75 313 208 408 35 25
39 26 29 10z m-4287 -55 c-3 -10 -5 -4 -5 12 0 17 2 24 5 18 2 -7 2 -21 0 -30z
m4369 11 c-30 -21 -44 -16 -17 7 13 11 27 17 30 13 3 -3 -3 -12 -13 -20z
m1754 -23 c0 -15 -60 -61 -78 -61 -12 0 -6 11 20 35 37 34 58 44 58 26z
m-6056 -54 c15 -22 46 -151 46 -185 -1 -15 -3 -14 -16 3 -27 35 -62 110 -69
147 -11 58 12 78 39 35z m5816 -26 c0 -17 -12 -41 -21 -41 -10 0 -12 33 -2 43
9 10 23 9 23 -2z m-6470 -60 c0 -11 -59 -25 -68 -16 -3 3 0 10 8 15 19 12 60
13 60 1z m5330 1 c0 -5 -19 -19 -42 -32 -24 -12 -64 -38 -89 -56 -67 -47 -107
-66 -114 -54 -12 19 -44 10 -64 -18 -30 -43 -71 -173 -83 -266 -12 -88 -9
-109 32 -220 25 -70 21 -97 -7 -41 -65 128 -61 372 7 504 29 56 71 90 133 106
31 8 87 30 125 49 66 34 102 44 102 28z m84 -11 c3 -5 -18 -27 -48 -49 -29
-22 -90 -78 -134 -123 -118 -120 -125 -85 -8 40 50 53 160 141 177 141 4 0 10
-4 13 -9z m-1784 -49 c0 -23 -17 -4 -23 25 -5 26 -4 26 9 8 8 -10 14 -25 14
-33z m2779 -29 c-7 -14 -21 -29 -31 -34 -27 -14 -23 9 10 60 24 37 27 40 30
20 2 -12 -2 -33 -9 -46z m-5879 -63 c11 -21 20 -46 20 -54 0 -32 103 -325 116
-330 22 -8 17 37 -11 105 -27 63 -47 197 -28 186 6 -4 30 -58 53 -121 40 -109
54 -136 135 -250 40 -55 52 -93 37 -108 -8 -8 -31 10 -79 62 -37 40 -81 81
-98 91 -20 13 -49 55 -90 130 -33 61 -65 110 -70 108 -6 -2 -10 -22 -9 -45 0
-30 13 -62 48 -123 31 -52 50 -98 54 -126 4 -41 3 -44 -22 -51 -34 -8 -63 -1
-166 43 -69 30 -102 38 -178 43 -108 7 -145 27 -150 79 -9 94 129 207 308 250
l65 16 3 55 c1 30 5 61 7 68 9 24 35 11 55 -28z m5425 -20 c-20 -22 -49 -27
-43 -7 5 13 50 39 57 32 2 -3 -4 -14 -14 -25z m161 -29 c-20 -22 -96 -65 -96
-54 0 11 44 53 80 77 29 19 40 4 16 -23z m224 30 c0 -18 -52 -50 -115 -71
-106 -35 -109 -19 -5 33 96 47 120 55 120 38z m-1276 -78 c-4 -16 -15 -46 -25
-68 -16 -37 -18 -38 -18 -13 -1 33 27 108 40 108 5 0 6 -12 3 -27z m820 13
c-7 -17 -32 -28 -46 -20 -10 7 20 33 39 34 7 0 10 -6 7 -14z m-561 -2 c4 -4
-8 -23 -25 -42 -54 -62 -72 -116 -72 -212 1 -68 6 -99 28 -154 15 -38 25 -71
22 -73 -5 -5 -41 49 -75 113 -34 62 -23 175 28 290 29 64 72 100 94 78z
m-4572 -115 c46 -111 50 -119 61 -119 7 0 9 15 5 40 -4 34 -2 40 13 40 36 0
116 -207 108 -278 -3 -23 -9 -15 -48 58 -30 55 -53 86 -65 88 -31 6 -55 32
-86 95 -34 67 -51 153 -28 145 8 -3 26 -34 40 -69z m5209 51 c0 -5 -5 -10 -10
-10 -6 0 -31 -28 -56 -62 -43 -58 -64 -99 -123 -231 -23 -53 -43 -56 -31 -5
18 82 85 196 158 271 46 47 62 56 62 37z m-324 -368 c-4 -3 -12 0 -18 6 -9 9
-8 18 2 39 l14 28 4 -33 c2 -19 1 -37 -2 -40z m-129 -79 c-3 -10 -5 -4 -5 12
0 17 2 24 5 18 2 -7 2 -21 0 -30z m264 -156 c-21 -72 -68 -197 -78 -207 -10
-9 9 93 28 157 49 158 92 201 50 50z m-1138 7 c69 -97 337 -578 363 -652 15
-42 62 -169 104 -282 43 -113 94 -252 115 -310 21 -58 48 -126 61 -151 15 -31
30 -93 44 -185 34 -235 26 -250 -34 -59 -119 376 -278 796 -416 1102 -71 156
-117 245 -256 498 -19 33 -34 66 -34 73 0 24 21 11 53 -34z m237 -201 c132
-221 204 -374 361 -765 108 -270 135 -355 153 -483 34 -249 27 -279 -19 -85
-28 119 -123 402 -215 644 -57 147 -370 787 -414 845 -43 58 -28 60 23 4 26
-29 76 -101 111 -160z m-570 177 c0 -12 -28 -25 -36 -17 -9 9 6 27 22 27 8 0
14 -5 14 -10z m1490 -160 c-12 -76 -44 -175 -60 -185 -8 -5 15 108 25 125 2 3
9 38 15 76 5 38 13 80 17 94 14 50 16 -30 3 -110z m-721 84 c33 -24 11 -43
-23 -20 -28 18 -34 36 -13 36 7 0 23 -7 36 -16z m137 -26 c6 -10 -20 -38 -35
-38 -17 1 -33 20 -28 34 7 18 52 22 63 4z m-248 -66 c73 -86 120 -153 134
-194 6 -18 22 -47 34 -65 12 -19 35 -66 50 -106 15 -39 45 -110 67 -157 62
-135 124 -298 145 -385 41 -166 34 -209 -13 -82 -170 452 -298 735 -413 915
-40 61 -75 118 -78 127 -13 34 18 11 74 -53z m929 -18 c-3 -31 -12 -63 -20
-73 -8 -9 -22 -29 -30 -46 -22 -42 -21 -19 3 50 11 32 20 70 20 85 0 28 7 40
23 40 6 0 7 -22 4 -56z m-350 -21 c-2 -16 -4 -5 -4 22 0 28 2 40 4 28 2 -13 2
-35 0 -50z m-1302 48 c11 -19 22 -101 13 -101 -9 0 -26 40 -35 83 -5 26 9 38
22 18z m1062 -146 c49 -33 83 -71 96 -107 12 -35 -13 -17 -54 37 -79 105 -77
66 7 -124 101 -228 83 -248 -27 -29 -132 264 -136 300 -22 223z m-145 -37 c56
-69 95 -138 157 -280 62 -140 114 -286 125 -353 14 -74 -13 -24 -95 181 -44
109 -103 238 -130 286 -27 48 -49 92 -49 96 0 5 -13 28 -30 50 -52 72 -33 88
22 20z m-1342 -56 c0 -33 -16 -18 -26 23 -7 27 -6 29 9 16 10 -7 17 -25 17
-39z m28 -115 c4 -32 -8 -34 -34 -6 -16 17 -16 22 -4 29 22 14 35 7 38 -23z
m-88 -12 c-13 -16 -40 -20 -40 -7 0 14 12 22 33 22 16 0 17 -3 7 -15z m219
-48 c0 -33 -2 -38 -9 -22 -12 28 -12 78 0 70 6 -3 10 -25 9 -48z m-100 -57 c0
-28 -2 -31 -9 -15 -5 11 -9 36 -9 55 0 28 2 31 9 15 5 -11 9 -36 9 -55z m-145
-146 c3 -9 6 -27 6 -42 0 -34 -17 -17 -26 26 -7 33 9 46 20 16z m-274 -124
c-30 -23 -40 -25 -40 -7 0 20 10 27 39 27 l26 0 -25 -20z m-347 -259 c-18 -32
-33 -40 -33 -19 0 13 41 60 47 54 2 -2 -4 -17 -14 -35z m-113 -160 c0 -5 -14
-24 -32 -42 -40 -40 -52 -19 -12 22 28 29 44 37 44 20z m58 -93 c-18 -27 -76
-63 -86 -53 -10 9 64 75 84 75 15 0 15 -2 2 -22z m-288 2 c0 -5 -12 -10 -26
-10 -14 0 -23 4 -19 10 3 6 15 10 26 10 10 0 19 -4 19 -10z m-385 -320 c-3 -5
-27 -10 -53 -10 -34 0 -43 3 -32 10 20 13 93 13 85 0z"/>
<path d="M5515 11994 c-106 -21 -267 -80 -397 -145 -95 -47 -134 -61 -196 -70
-79 -11 -99 -19 -88 -38 19 -30 187 8 344 79 51 23 154 56 238 76 263 64 281
71 271 98 -8 20 -72 20 -172 0z"/>
<path d="M3765 11986 c-22 -7 -80 -31 -130 -54 -73 -33 -98 -40 -130 -36 -46
6 -100 -10 -89 -27 4 -7 23 -9 52 -5 39 5 43 4 31 -10 -20 -24 -65 -44 -101
-44 -116 0 -214 -90 -145 -134 12 -8 75 -24 140 -35 208 -37 256 -64 360 -200
39 -52 104 -128 143 -170 60 -63 74 -73 79 -58 11 27 -40 117 -121 215 -81 98
-155 158 -210 174 -46 12 -119 80 -93 86 9 2 52 -10 95 -27 44 -16 97 -33 118
-37 53 -9 113 -73 190 -201 89 -147 152 -229 190 -247 72 -34 238 -48 290 -25
20 10 30 9 51 -5 21 -14 24 -20 14 -32 -6 -8 -17 -14 -25 -14 -15 0 -5 -25 65
-173 45 -95 51 -119 23 -94 -17 15 -39 59 -71 140 -14 35 -37 34 -56 -3 -19
-36 -19 -84 -1 -99 8 -7 46 -58 85 -114 175 -254 338 -361 651 -428 80 -17
139 -23 250 -23 l145 -1 71 39 72 39 40 -16 c88 -35 180 41 107 89 -20 13 -31
15 -48 6 -53 -26 -177 -71 -203 -73 -67 -5 -70 1 -16 32 54 31 64 56 21 51
-23 -2 -39 -10 -173 -81 -53 -28 -85 -33 -71 -11 11 18 -24 25 -130 26 -123 2
-266 31 -322 65 -35 22 -45 44 -15 35 148 -46 337 -52 469 -17 82 23 124 44
111 56 -3 4 -78 -2 -166 -11 -137 -16 -177 -16 -274 -6 -62 6 -138 18 -168 27
-55 16 -110 49 -99 59 3 3 42 -1 87 -10 61 -11 86 -12 102 -4 16 9 31 7 66 -6
97 -37 317 3 537 98 121 52 128 53 219 32 37 -9 47 17 19 52 -12 15 -21 35
-21 45 0 25 -29 25 -72 0 -46 -27 -166 -49 -335 -63 -241 -20 -439 14 -629
107 -136 66 -190 136 -150 191 14 19 15 19 21 -1 12 -39 22 -50 66 -77 131
-81 536 -139 646 -93 44 19 73 43 73 61 0 11 -5 11 -27 2 -38 -17 -321 -16
-395 1 -32 7 -66 20 -75 29 -16 16 -15 17 4 20 12 2 37 -5 55 -15 27 -14 55
-18 153 -17 136 2 242 25 327 71 51 28 87 66 71 76 -4 3 -85 -19 -178 -50
-102 -32 -180 -52 -195 -49 -14 3 -52 12 -85 20 -33 8 -89 19 -125 26 -76 13
-214 77 -250 115 l-25 27 55 -22 c239 -94 616 -50 855 101 68 43 139 114 130
129 -12 19 -42 9 -139 -50 -110 -67 -216 -110 -356 -147 -76 -21 -121 -26
-225 -27 -83 -1 -143 4 -165 12 -41 15 -87 48 -79 57 3 3 44 -4 90 -15 80 -19
220 -27 253 -14 29 11 6 24 -43 24 -57 0 -201 35 -254 62 -49 24 -43 34 7 13
23 -10 100 -20 201 -27 201 -15 309 -4 387 36 62 32 188 124 188 137 0 18 -32
8 -142 -42 -138 -63 -276 -100 -381 -101 -66 -1 -80 2 -100 20 -12 11 -42 24
-67 27 -103 15 -289 90 -351 142 l-32 27 29 8 c16 5 65 5 109 2 129 -9 365 21
365 47 0 8 -28 9 -87 4 -144 -10 -399 30 -450 72 -19 15 0 15 147 -3 80 -10
57 6 -95 65 -72 28 -140 57 -150 66 -18 13 -13 14 49 8 89 -8 82 6 -29 58
-106 50 -228 79 -332 79 -125 0 -120 -18 18 -65 159 -54 245 -132 334 -306 31
-61 55 -112 53 -115 -2 -2 -33 31 -69 73 -107 129 -181 204 -218 223 -59 29
-229 55 -247 37 -9 -8 46 -34 102 -48 130 -32 239 -128 343 -303 35 -59 88
-137 117 -173 30 -36 52 -68 50 -71 -3 -2 -32 10 -66 27 l-60 31 0 -24 c0 -69
-90 -73 -211 -10 -111 58 -170 118 -208 211 -37 89 -92 193 -128 241 -32 43
-87 70 -164 79 -35 5 -64 13 -67 21 -9 28 112 113 231 162 61 26 68 34 38 50
-26 13 -76 12 -126 -4z m865 -851 c35 -37 14 -44 -23 -7 -22 22 -27 32 -16 32
9 0 26 -11 39 -25z m115 -74 c-6 -5 -28 -12 -50 -15 l-40 -6 30 15 c34 16 74
20 60 6z m222 -367 c26 -9 103 -18 171 -21 67 -3 122 -10 122 -14 0 -14 -197
-10 -305 6 -113 17 -165 32 -165 47 0 13 111 2 177 -18z"/>
<path d="M5730 11960 c-13 -9 -12 -13 8 -30 13 -11 40 -22 60 -25 20 -4 61
-14 90 -22 41 -13 56 -13 65 -4 9 9 7 16 -13 31 -49 37 -183 69 -210 50z"/>
<path d="M5520 11815 c-6 -15 -16 -25 -23 -22 -6 2 -44 12 -82 22 -98 25 -136
17 -174 -38 -16 -24 -36 -49 -45 -56 -29 -24 -17 -28 36 -15 62 16 124 18 133
4 3 -5 15 -10 26 -10 30 0 79 -28 127 -72 57 -52 124 -82 170 -75 24 4 62 -3
124 -24 132 -44 368 -62 368 -28 0 10 -22 15 -100 24 -134 15 -305 88 -357
153 -17 20 -52 48 -79 62 -47 24 -48 25 -20 28 47 6 75 -7 121 -52 28 -27 63
-49 97 -60 67 -23 197 -33 226 -17 17 9 30 8 59 -4 36 -16 117 -14 161 2 18 8
-192 73 -233 73 -16 0 -42 6 -56 13 -14 8 -43 17 -66 20 -22 4 -98 25 -169 47
-71 22 -153 43 -181 46 -50 6 -53 6 -63 -21z"/>
<path d="M4580 11760 c20 -13 73 -13 65 0 -3 6 -23 10 -43 10 -28 0 -33 -3
-22 -10z"/>
<path d="M4830 11671 c0 -16 38 -23 80 -16 60 10 48 25 -20 25 -33 0 -60 -4
-60 -9z"/>
<path d="M5234 11635 c-18 -7 -35 -18 -38 -24 -4 -6 -16 -11 -26 -11 -19 0
-36 -17 -27 -26 7 -7 114 35 127 50 16 21 -1 26 -36 11z"/>
<path d="M6293 11540 c-38 -15 -26 -30 23 -30 54 0 134 19 134 31 0 12 -128
10 -157 -1z"/>
<path d="M4937 11519 c-123 -20 -141 -25 -132 -39 8 -13 91 -13 152 1 42 9
103 44 92 52 -2 2 -53 -4 -112 -14z"/>
<path d="M5745 11489 c-18 -29 82 -82 176 -94 106 -13 327 28 316 59 -5 13
-17 13 -116 -4 -91 -15 -171 -7 -265 26 -76 26 -101 29 -111 13z"/>
<path d="M3570 11472 c0 -4 21 -28 46 -52 26 -25 59 -65 75 -89 53 -83 29 -95
-53 -28 -92 75 -103 81 -122 62 -25 -26 -19 -41 31 -82 118 -96 161 -155 207
-284 26 -73 160 -199 211 -199 78 0 250 -140 367 -298 38 -51 106 -129 151
-173 119 -118 321 -248 385 -249 32 0 25 11 -27 51 -59 45 -66 66 -15 43 142
-63 226 -77 304 -49 29 10 82 15 164 15 141 0 310 15 416 36 95 19 244 68 294
97 45 25 82 70 72 86 -13 21 -57 11 -166 -39 -224 -102 -379 -119 -631 -69
-241 47 -490 169 -613 298 -34 35 -70 40 -86 12 -16 -30 -12 -51 20 -119 28
-60 28 -62 7 -51 -40 22 -136 112 -210 197 -118 137 -315 270 -425 288 -41 6
-132 57 -132 74 0 5 14 5 31 0 23 -7 31 -6 36 6 3 8 1 20 -4 27 -28 35 -73
127 -63 127 6 0 35 -23 64 -50 105 -99 337 -213 368 -181 11 10 7 17 -17 37
-16 13 -51 31 -76 38 -25 8 -70 26 -99 41 -108 55 -129 74 -188 174 -71 122
-251 311 -294 311 -16 0 -28 -4 -28 -8z m1038 -1166 c6 -30 -39 -18 -74 20
-19 19 -34 40 -34 46 0 16 105 -47 108 -66z m261 -11 c69 -44 127 -68 198 -80
22 -3 49 -13 60 -20 17 -13 16 -14 -12 -25 -65 -25 -207 29 -303 115 -29 26
-52 53 -52 61 0 18 11 12 109 -51z"/>
<path d="M4090 11454 c0 -4 9 -22 21 -40 39 -63 176 -144 245 -144 42 0 23 19
-73 75 -51 29 -109 67 -130 84 -35 29 -63 40 -63 25z"/>
<path d="M5770 11314 c-12 -30 -13 -114 -2 -130 4 -6 22 -15 39 -19 42 -8 142
-82 179 -131 16 -20 38 -55 49 -77 33 -67 63 -82 161 -82 84 0 109 11 67 30
-34 14 -28 22 21 29 59 9 174 66 214 106 53 52 25 55 -74 8 -82 -40 -95 -43
-169 -43 -114 0 -177 35 -294 164 -109 122 -159 171 -172 171 -5 0 -14 -12
-19 -26z"/>
<path d="M4384 10786 c-10 -27 27 -116 62 -152 65 -65 73 -32 17 76 -38 74
-68 103 -79 76z"/>
<path d="M3603 10721 c-29 -14 -52 -29 -53 -33 0 -4 24 -14 54 -22 103 -30
392 -15 403 21 7 20 -39 28 -148 26 -94 -3 -109 0 -129 17 -30 26 -62 23 -127
-9z"/>
<path d="M5990 10663 c0 -7 5 -13 10 -13 16 0 12 -37 -5 -44 -23 -8 -18 -23 9
-30 27 -7 56 1 56 15 0 15 -69 85 -70 72z"/>
<path d="M5867 10563 c-4 -3 -7 -17 -7 -30 0 -29 41 -48 71 -33 26 14 24 25
-7 49 -27 22 -46 26 -57 14z"/>
<path d="M5993 10462 c36 -40 117 -67 117 -39 0 25 -36 47 -86 53 l-49 7 18
-21z"/>
<path d="M5505 10030 c-143 -9 -135 -7 -135 -20 0 -13 181 -13 251 0 64 12 89
31 39 28 -19 -1 -89 -5 -155 -8z"/>
<path d="M1778 10716 c-26 -7 -54 -18 -62 -26 -19 -15 -21 -39 -3 -46 18 -7
270 32 296 45 25 14 27 27 5 35 -27 11 -187 5 -236 -8z"/>
<path d="M2623 10634 c-7 -18 20 -44 44 -44 20 0 27 28 13 45 -17 20 -49 19
-57 -1z"/>
<path d="M2710 10557 c0 -17 20 -37 37 -37 7 0 13 11 13 25 0 20 -5 25 -25 25
-14 0 -25 -6 -25 -13z"/>
<path d="M2395 10520 c-10 -17 12 -37 25 -24 8 8 6 15 -4 23 -10 9 -16 9 -21
1z"/>
<path d="M2590 10497 c0 -8 19 -23 42 -33 24 -10 62 -34 85 -51 l43 -33 0 34
c0 20 -8 40 -19 50 -41 37 -151 61 -151 33z"/>
<path d="M1312 10470 c-7 -19 -29 -84 -48 -144 -20 -59 -58 -160 -85 -223 -53
-124 -60 -156 -31 -151 23 4 94 141 131 256 36 110 54 203 49 258 l-3 39 -13
-35z"/>
<path d="M2470 10433 c1 -13 47 -43 71 -46 34 -3 34 20 0 37 -31 17 -71 21
-71 9z"/>
<path d="M2627 10184 c-14 -14 -7 -25 13 -22 12 2 21 8 21 13 0 12 -24 18 -34
9z"/>
<path d="M2431 9991 c-10 -7 -8 -12 10 -25 30 -20 68 -21 76 -1 3 9 4 18 2 20
-10 9 -76 14 -88 6z"/>
<path d="M2568 9913 c-27 -7 -22 -32 8 -39 33 -8 68 21 44 36 -16 10 -24 11
-52 3z"/>
<path d="M2812 9868 c3 -7 13 -15 22 -16 12 -3 17 1 14 10 -3 7 -13 15 -22 16
-12 3 -17 -1 -14 -10z"/>
<path d="M2700 9821 c0 -5 6 -14 14 -20 16 -13 32 2 21 19 -8 12 -35 13 -35 1z"/>
<path d="M2789 9739 c-11 -8 -10 -13 10 -30 26 -21 44 -21 49 3 4 19 -40 39
-59 27z"/>
<path d="M3010 9685 c0 -8 7 -15 15 -15 8 0 15 7 15 15 0 8 -7 15 -15 15 -8 0
-15 -7 -15 -15z"/>
<path d="M2982 9568 c3 -7 13 -15 22 -16 12 -3 17 1 14 10 -3 7 -13 15 -22 16
-12 3 -17 -1 -14 -10z"/>
<path d="M2510 9510 c0 -23 53 -60 88 -60 31 0 28 13 -13 49 -42 36 -75 41
-75 11z"/>
<path d="M2997 9384 c-11 -12 3 -24 29 -24 27 0 32 15 8 24 -20 8 -29 8 -37 0z"/>
<path d="M3220 9360 c0 -23 35 -44 57 -36 14 6 13 10 -7 31 -28 30 -50 32 -50
5z"/>
<path d="M3085 9310 c-7 -11 30 -36 68 -45 21 -6 27 -4 27 8 0 32 -79 63 -95
37z"/>
<path d="M2884 9215 c-8 -21 4 -35 32 -35 29 0 32 25 5 40 -26 13 -31 13 -37
-5z"/>
<path d="M2873 9068 c2 -7 12 -13 22 -13 10 0 20 6 23 13 2 7 -6 12 -23 12
-17 0 -25 -5 -22 -12z"/>
<path d="M2766 9021 c-7 -11 22 -23 35 -15 5 3 9 9 9 15 0 12 -37 12 -44 0z"/>
<path d="M3272 8993 c2 -10 14 -19 26 -21 19 -3 23 1 20 15 -2 10 -14 19 -26
21 -19 3 -23 -1 -20 -15z"/>
<path d="M2616 8985 c-18 -19 -20 -31 -7 -40 14 -8 82 27 78 39 -6 18 -53 18
-71 1z"/>
<path d="M2975 8990 c-8 -12 20 -24 35 -15 6 3 8 11 5 16 -8 12 -32 12 -40 -1z"/>
<path d="M2755 8930 c-7 -12 12 -40 27 -40 16 0 21 32 7 41 -18 12 -26 11 -34
-1z"/>
<path d="M3055 8930 c-4 -6 -3 -14 0 -20 9 -15 35 -12 35 4 0 17 -27 29 -35
16z"/>
<path d="M2872 8828 c5 -15 28 -18 29 -3 0 6 -7 12 -17 13 -10 3 -15 -1 -12
-10z"/>
<path d="M2753 8803 c-22 -8 -14 -32 13 -39 33 -8 52 9 34 31 -13 15 -25 17
-47 8z"/>
<path d="M3055 8800 c-8 -13 13 -40 31 -40 20 0 27 19 14 35 -14 17 -36 19
-45 5z"/>
<path d="M3135 8720 c-12 -20 15 -50 45 -50 37 0 38 12 4 39 -30 23 -40 26
-49 11z"/>
<path d="M2847 8713 c-19 -19 16 -39 47 -27 13 5 14 9 5 20 -12 15 -41 19 -52
7z"/>
<path d="M4350 8690 c0 -11 7 -20 15 -20 17 0 18 2 9 24 -9 23 -24 20 -24 -4z"/>
<path d="M2744 8658 c-4 -5 -1 -14 7 -18 14 -9 29 -4 29 10 0 13 -29 20 -36 8z"/>
<path d="M3330 8645 c0 -8 7 -15 15 -15 8 0 15 7 15 15 0 8 -7 15 -15 15 -8 0
-15 -7 -15 -15z"/>
<path d="M4252 8623 c5 -25 28 -28 28 -4 0 12 -6 21 -16 21 -9 0 -14 -7 -12
-17z"/>
<path d="M2944 8614 c3 -9 6 -18 6 -20 0 -2 9 -4 20 -4 23 0 26 10 8 28 -18
18 -41 15 -34 -4z"/>
<path d="M3232 8614 c2 -11 11 -20 22 -22 13 -3 17 1 14 14 -2 11 -11 20 -22
22 -13 3 -17 -1 -14 -14z"/>
<path d="M2834 8579 c-6 -10 11 -28 28 -29 15 0 20 23 7 31 -19 12 -26 11 -35
-2z"/>
<path d="M4335 8540 c-7 -12 2 -30 16 -30 5 0 9 9 9 20 0 21 -15 27 -25 10z"/>
<path d="M3330 8502 c0 -11 9 -30 19 -43 16 -20 22 -22 33 -11 10 10 10 18 -2
40 -19 33 -50 42 -50 14z"/>
<path d="M2835 8450 c-8 -13 24 -40 46 -40 30 0 20 32 -13 41 -16 4 -30 4 -33
-1z"/>
<path d="M2725 8400 c-8 -13 20 -24 41 -16 20 8 9 26 -16 26 -10 0 -22 -5 -25
-10z"/>
<path d="M3052 8398 c-16 -16 -15 -38 1 -38 7 0 33 -20 57 -45 24 -25 50 -45
57 -45 24 0 13 29 -17 45 -16 8 -36 28 -44 43 -21 41 -40 54 -54 40z"/>
<path d="M2930 8355 c0 -17 56 -55 83 -55 26 0 20 26 -12 49 -34 25 -71 28
-71 6z"/>
<path d="M4360 8321 c0 -15 6 -21 21 -21 25 0 22 33 -4 38 -12 2 -17 -3 -17
-17z"/>
<path d="M2825 8309 c-10 -15 21 -39 51 -39 47 0 35 32 -17 45 -17 4 -30 2
-34 -6z"/>
<path d="M4293 8274 c-3 -8 1 -23 10 -32 15 -14 17 -14 23 1 8 21 -1 47 -16
47 -6 0 -13 -7 -17 -16z"/>
<path d="M2750 8272 c0 -16 32 -52 46 -52 20 0 18 24 -4 43 -19 18 -42 23 -42
9z"/>
<path d="M2680 8232 c0 -12 23 -32 37 -32 18 0 16 27 -3 34 -21 8 -34 8 -34
-2z"/>
<path d="M3215 8221 c-9 -16 3 -31 26 -31 14 0 19 6 17 17 -4 20 -33 29 -43
14z"/>
<path d="M4372 8208 c-15 -19 2 -48 19 -31 7 7 8 17 2 28 -8 13 -11 14 -21 3z"/>
<path d="M2962 8194 c2 -11 11 -20 22 -22 13 -3 17 1 14 14 -2 11 -11 20 -22
22 -13 3 -17 -1 -14 -14z"/>
<path d="M2860 8180 c-16 -10 15 -40 41 -40 29 0 25 37 -5 42 -14 3 -30 2 -36
-2z"/>
<path d="M4145 8160 c-7 -12 2 -30 16 -30 12 0 12 27 0 35 -5 3 -12 1 -16 -5z"/>
<path d="M2770 8141 c0 -14 49 -45 57 -37 12 11 -12 41 -36 44 -11 2 -21 -1
-21 -7z"/>
<path d="M3045 8130 c-9 -15 -1 -23 21 -18 15 3 16 4 1 16 -11 9 -17 10 -22 2z"/>
<path d="M4064 8099 c-10 -17 23 -46 37 -32 7 7 9 19 6 27 -7 18 -33 21 -43 5z"/>
<path d="M2950 8086 c0 -13 20 -26 41 -26 5 0 9 9 9 20 0 15 -7 20 -25 20 -15
0 -25 -6 -25 -14z"/>
<path d="M4207 8084 c-10 -10 12 -44 28 -44 21 0 28 19 15 35 -13 16 -32 19
-43 9z"/>
<path d="M2600 8074 c0 -20 24 -44 45 -44 31 0 32 14 3 34 -22 16 -48 21 -48
10z"/>
<path d="M2867 8064 c-16 -16 -6 -35 16 -32 12 2 22 10 22 18 0 16 -26 25 -38
14z"/>
<path d="M3970 8046 c-9 -12 -6 -19 14 -37 14 -13 26 -28 26 -35 0 -21 57 -74
79 -74 31 0 26 14 -24 70 -24 27 -49 59 -55 70 -13 24 -23 25 -40 6z"/>
<path d="M2510 8031 c0 -13 29 -35 37 -28 7 8 -15 37 -28 37 -5 0 -9 -4 -9 -9z"/>
<path d="M4127 8028 c-7 -20 11 -60 25 -56 18 6 22 36 8 53 -15 18 -26 19 -33
3z"/>
<path d="M2782 8003 c4 -22 43 -25 43 -3 0 8 -11 16 -23 18 -19 3 -23 0 -20
-15z"/>
<path d="M3050 8005 c12 -15 30 -12 30 6 0 5 -10 9 -21 9 -18 0 -19 -2 -9 -15z"/>
<path d="M2679 7974 c-11 -14 -10 -18 6 -30 25 -18 49 -18 66 2 11 14 10 18
-6 30 -25 18 -49 18 -66 -2z"/>
<path d="M3104 7969 c-10 -17 23 -46 38 -31 8 8 8 15 -2 27 -15 18 -26 19 -36
4z"/>
<path d="M2304 7948 c-8 -12 25 -40 41 -35 5 2 10 10 10 17 0 17 -42 32 -51
18z"/>
<path d="M2600 7931 c0 -5 7 -12 16 -15 22 -9 24 -8 24 9 0 8 -9 15 -20 15
-11 0 -20 -4 -20 -9z"/>
<path d="M3010 7911 c0 -22 37 -38 52 -23 6 6 3 15 -7 26 -22 22 -45 20 -45
-3z"/>
<path d="M2210 7900 c0 -24 26 -38 42 -22 8 8 8 15 -2 27 -18 21 -40 19 -40
-5z"/>
<path d="M2755 7900 c-10 -16 4 -30 31 -30 27 0 33 24 8 34 -22 8 -32 8 -39
-4z"/>
<path d="M3950 7897 c0 -7 15 -31 33 -53 18 -21 43 -54 56 -71 21 -31 51 -44
51 -23 0 6 -26 44 -57 85 -53 70 -83 93 -83 62z"/>
<path d="M3450 7891 c0 -14 141 -163 148 -156 7 6 -83 115 -119 143 -16 13
-29 19 -29 13z"/>
<path d="M3315 7880 c-3 -6 1 -13 10 -16 19 -8 30 0 20 15 -8 14 -22 14 -30 1z"/>
<path d="M2927 7866 c-8 -20 20 -43 35 -28 14 14 3 42 -16 42 -7 0 -16 -6 -19
-14z"/>
<path d="M4113 7854 c-3 -8 2 -23 11 -32 14 -14 18 -15 25 -3 12 18 2 51 -15
51 -8 0 -17 -7 -21 -16z"/>
<path d="M2402 7843 c2 -11 14 -19 31 -21 29 -4 35 6 15 26 -19 19 -50 15 -46
-5z"/>
<path d="M3080 7847 c0 -29 78 -97 112 -97 29 0 21 27 -15 49 -18 11 -42 29
-52 41 -21 23 -45 27 -45 7z"/>
<path d="M3620 7841 c0 -5 4 -13 10 -16 5 -3 41 -47 78 -98 86 -116 225 -278
253 -295 88 -55 -33 115 -226 316 -79 83 -115 112 -115 93z"/>
<path d="M2286 7821 c-10 -16 6 -42 32 -52 36 -14 49 3 28 35 -16 26 -49 35
-60 17z"/>
<path d="M2830 7815 c0 -21 27 -30 45 -15 19 16 10 30 -21 30 -15 0 -24 -6
-24 -15z"/>
<path d="M2583 7813 c-22 -8 -14 -23 12 -23 14 0 25 4 25 9 0 11 -21 19 -37
14z"/>
<path d="M2992 7794 c2 -11 11 -20 22 -22 13 -3 17 1 14 14 -2 11 -11 20 -22
22 -13 3 -17 -1 -14 -14z"/>
<path d="M3419 7768 c16 -24 50 -63 76 -88 81 -78 413 -486 438 -537 13 -29
27 -30 27 -2 0 20 -14 47 -80 149 -49 75 -206 257 -336 388 -133 134 -179 167
-125 90z"/>
<path d="M2733 7784 c-7 -19 21 -44 48 -44 25 0 30 26 10 44 -23 21 -50 20
-58 0z"/>
<path d="M3805 7780 c20 -22 31 -20 22 5 -4 8 -14 15 -23 15 -16 0 -16 -2 1
-20z"/>
<path d="M2472 7767 c-15 -18 -5 -27 30 -27 23 0 29 4 26 18 -4 21 -41 28 -56
9z"/>
<path d="M2197 7764 c-13 -13 -7 -24 14 -24 11 0 19 5 17 12 -5 14 -22 21 -31
12z"/>
<path d="M4175 7760 c-9 -14 13 -50 30 -50 18 0 20 31 3 48 -15 15 -25 15 -33
2z"/>
<path d="M2657 7744 c-11 -11 5 -34 24 -34 22 0 24 11 7 28 -13 13 -22 15 -31
6z"/>
<path d="M3059 7729 c-12 -7 -11 -11 3 -25 17 -17 38 -12 38 11 0 17 -23 25
-41 14z"/>
<path d="M2352 7713 c2 -12 14 -19 36 -21 28 -3 33 0 30 15 -2 12 -14 19 -36
21 -28 3 -33 0 -30 -15z"/>
<path d="M3966 7722 c-2 -4 -1 -14 4 -22 7 -11 12 -12 21 -3 6 6 8 16 5 22 -8
13 -23 14 -30 3z"/>
<path d="M4095 7710 c-10 -16 14 -50 35 -50 29 0 33 17 10 40 -22 22 -36 25
-45 10z"/>
<path d="M4343 7698 c-46 -50 -59 -198 -18 -198 21 0 27 17 36 99 5 42 11 86
15 99 3 12 2 22 -3 22 -5 0 -19 -10 -30 -22z"/>
<path d="M2820 7696 c0 -17 27 -29 35 -16 4 6 3 15 0 20 -9 15 -35 12 -35 -4z"/>
<path d="M2560 7689 c0 -19 21 -50 31 -44 5 4 9 17 9 31 0 17 -5 24 -20 24
-11 0 -20 -5 -20 -11z"/>
<path d="M3890 7684 c0 -12 7 -27 15 -34 20 -17 21 9 0 36 -14 19 -14 19 -15
-2z"/>
<path d="M2964 7675 c-8 -20 4 -35 27 -35 24 0 37 29 18 41 -21 13 -39 11 -45
-6z"/>
<path d="M3135 7660 c-3 -5 -1 -19 6 -31 10 -19 12 -20 27 -6 13 13 13 19 2
31 -14 18 -26 20 -35 6z"/>
<path d="M4020 7651 c0 -25 25 -45 46 -37 15 6 14 9 -6 31 -28 30 -40 32 -40
6z"/>
<path d="M2440 7650 c-13 -9 -12 -13 9 -30 29 -25 47 -25 55 -3 5 11 1 22 -10
30 -21 16 -34 16 -54 3z"/>
<path d="M2865 7650 c-16 -25 22 -69 46 -54 16 9 10 43 -10 54 -24 13 -28 13
-36 0z"/>
<path d="M2612 7608 c3 -25 43 -37 61 -19 15 15 -10 41 -40 41 -20 0 -24 -4
-21 -22z"/>
<path d="M4170 7615 c0 -17 30 -72 48 -89 21 -18 22 -18 28 -1 11 26 -26 89
-53 93 -13 2 -23 1 -23 -3z"/>
<path d="M2350 7595 c0 -9 9 -15 21 -15 18 0 19 2 9 15 -7 8 -16 15 -21 15 -5
0 -9 -7 -9 -15z"/>
<path d="M2785 7600 c-12 -20 6 -50 31 -50 30 0 33 34 5 50 -24 13 -28 13 -36
0z"/>
<path d="M3040 7596 c0 -15 52 -84 77 -103 52 -39 43 20 -11 73 -44 45 -66 55
-66 30z"/>
<path d="M2514 7576 c-10 -26 4 -48 28 -44 17 2 23 10 23 28 0 18 -6 26 -23
28 -13 2 -25 -3 -28 -12z"/>
<path d="M3212 7570 c7 -11 16 -20 20 -20 5 0 8 9 8 20 0 13 -7 20 -20 20 -18
0 -19 -2 -8 -20z"/>
<path d="M3968 7568 c23 -23 39 -20 29 7 -4 8 -17 15 -29 15 l-22 0 22 -22z"/>
<path d="M2251 7561 c-19 -12 -4 -31 25 -31 19 0 25 5 22 17 -4 20 -27 27 -47
14z"/>
<path d="M2675 7550 c-9 -15 23 -50 45 -50 23 0 41 22 31 38 -10 17 -67 27
-76 12z"/>
<path d="M2960 7541 c0 -12 6 -21 16 -21 9 0 14 7 12 17 -5 25 -28 28 -28 4z"/>
<path d="M4094 7549 c-10 -17 23 -46 37 -32 7 7 9 19 6 27 -7 18 -33 21 -43 5z"/>
<path d="M2140 7527 c0 -19 53 -91 82 -111 28 -20 58 -21 58 -2 0 22 -100 126
-121 126 -10 0 -19 -6 -19 -13z"/>
<path d="M2402 7508 c7 -20 48 -23 48 -4 0 11 -9 16 -26 16 -16 0 -24 -5 -22
-12z"/>
<path d="M2590 7500 c-22 -14 0 -44 35 -48 36 -5 50 10 36 37 -12 22 -46 27
-71 11z"/>
<path d="M2860 7497 c0 -17 32 -47 49 -47 9 0 11 8 7 23 -3 12 -6 25 -6 30 0
13 -50 7 -50 -6z"/>
<path d="M4020 7497 c0 -19 37 -50 49 -42 15 9 14 21 -5 39 -19 20 -44 21 -44
3z"/>
<path d="M3012 7488 c-16 -16 4 -48 28 -48 13 0 20 7 20 20 0 24 -32 44 -48
28z"/>
<path d="M2320 7466 c0 -10 9 -16 21 -16 24 0 21 23 -4 28 -10 2 -17 -3 -17
-12z"/>
<path d="M2770 7446 c0 -7 11 -21 25 -30 23 -15 26 -15 31 -1 3 8 4 22 0 30
-7 19 -56 20 -56 1z"/>
<path d="M2470 7435 c0 -18 37 -38 56 -31 19 7 18 32 -2 40 -28 11 -54 6 -54
-9z"/>
<path d="M4330 7435 c-15 -18 -6 -45 15 -45 9 0 15 9 15 24 0 31 -14 40 -30
21z"/>
<path d="M2666 7407 c-18 -13 -18 -15 12 -37 18 -13 34 -31 37 -41 3 -10 21
-27 40 -38 19 -11 41 -35 48 -53 18 -42 82 -99 102 -92 22 9 20 14 -36 74 -28
30 -61 71 -74 90 -12 19 -32 44 -44 54 -11 11 -21 25 -21 33 0 7 -4 13 -9 13
-5 0 -15 2 -23 5 -7 3 -22 -1 -32 -8z"/>
<path d="M2386 7394 c-7 -19 10 -44 31 -44 19 0 28 27 13 45 -16 20 -36 19
-44 -1z"/>
<path d="M2295 7370 c-14 -22 84 -145 108 -137 23 7 19 37 -6 46 -16 6 -29 23
-36 44 -12 34 -55 65 -66 47z"/>
<path d="M2990 7356 c0 -36 127 -176 159 -176 25 0 7 30 -65 108 -75 81 -94
95 -94 68z"/>
<path d="M4021 7357 c-13 -17 -6 -43 15 -51 16 -6 27 14 22 40 -4 23 -22 28
-37 11z"/>
<path d="M2560 7341 c0 -25 30 -43 51 -31 19 13 0 44 -30 48 -16 3 -21 -2 -21
-17z"/>
<path d="M1597 7294 c-11 -11 5 -34 24 -34 22 0 24 11 7 28 -13 13 -22 15 -31
6z"/>
<path d="M2623 7274 c-7 -18 20 -44 44 -44 20 0 15 38 -6 50 -26 14 -31 13
-38 -6z"/>
<path d="M2531 7226 c-9 -11 -8 -18 4 -30 20 -20 29 -20 45 -1 10 12 10 18 0
30 -16 19 -34 19 -49 1z"/>
<path d="M2695 7200 c-8 -13 13 -40 31 -40 20 0 27 19 14 35 -14 17 -36 19
-45 5z"/>
<path d="M2410 7184 c0 -9 23 -41 51 -72 28 -32 56 -67 61 -78 17 -37 78 -54
78 -22 0 5 -21 33 -46 62 -26 28 -57 68 -71 89 -17 26 -30 37 -48 37 -16 0
-25 -6 -25 -16z"/>
<path d="M1660 7171 c0 -21 17 -31 38 -23 17 6 15 29 -4 36 -26 10 -34 7 -34
-13z"/>
<path d="M1575 7166 c-15 -11 -15 -13 3 -29 22 -20 52 -13 52 13 0 22 -34 32
-55 16z"/>
<path d="M2594 7149 c-3 -6 1 -18 10 -27 15 -15 18 -15 26 -2 5 9 5 19 -2 27
-13 16 -25 17 -34 2z"/>
<path d="M2340 7135 c0 -8 7 -15 15 -15 8 0 15 7 15 15 0 8 -7 15 -15 15 -8 0
-15 -7 -15 -15z"/>
<path d="M2770 7114 c0 -21 67 -121 86 -128 18 -7 29 17 17 37 -51 84 -103
130 -103 91z"/>
<path d="M3180 7117 c0 -8 22 -43 50 -78 27 -35 59 -76 71 -91 11 -16 27 -28
35 -28 27 0 13 36 -42 105 -31 39 -60 78 -65 88 -11 20 -49 23 -49 4z"/>
<path d="M2927 7104 c-3 -4 -1 -16 5 -28 15 -29 129 -156 139 -156 16 0 9 42
-13 73 -30 46 -100 117 -113 117 -7 0 -15 -3 -18 -6z"/>
<path d="M1716 7081 c-3 -5 1 -12 10 -15 27 -10 44 -7 44 9 0 16 -45 21 -54 6z"/>
<path d="M1637 7073 c-4 -3 -7 -17 -7 -30 0 -16 6 -23 20 -23 25 0 36 25 20
45 -14 16 -23 19 -33 8z"/>
<path d="M2655 7069 c-8 -12 11 -29 33 -29 19 0 10 34 -10 38 -9 2 -19 -2 -23
-9z"/>
<path d="M2396 7062 c-2 -4 -1 -14 4 -21 10 -17 31 -5 23 14 -6 16 -19 20 -27
7z"/>
<path d="M1892 7014 c1 -9 9 -19 16 -22 9 -3 13 2 10 14 -1 9 -9 19 -16 22 -9
3 -13 -2 -10 -14z"/>
<path d="M2462 6986 c2 -15 8 -26 13 -26 15 0 12 43 -3 48 -10 3 -13 -4 -10
-22z"/>
<path d="M2700 6994 c0 -9 20 -35 44 -58 24 -22 51 -55 60 -73 14 -28 42 -53
60 -53 3 0 6 12 6 26 0 17 -14 43 -37 69 -21 23 -46 56 -55 73 -13 25 -24 32
-48 32 -21 0 -30 -5 -30 -16z"/>
<path d="M1797 6994 c-13 -13 -7 -24 14 -24 11 0 19 5 17 12 -5 14 -22 21 -31
12z"/>
<path d="M1676 6972 c-8 -14 20 -34 41 -30 28 5 22 33 -9 36 -14 2 -29 -1 -32
-6z"/>
<path d="M2600 6952 c0 -10 16 -33 35 -52 19 -18 40 -48 46 -67 18 -56 99 -96
99 -49 0 20 -58 86 -76 86 -7 0 -17 12 -20 28 -13 55 -84 101 -84 54z"/>
<path d="M2910 6934 c0 -23 32 -74 47 -74 20 0 15 48 -7 70 -24 24 -40 26 -40
4z"/>
<path d="M1930 6923 c0 -4 4 -14 9 -22 11 -17 45 -7 39 12 -5 13 -48 23 -48
10z"/>
<path d="M2517 6913 c-23 -22 18 -81 48 -70 22 9 19 54 -4 67 -23 12 -35 13
-44 3z"/>
<path d="M1847 6903 c-13 -13 -7 -28 16 -38 15 -7 23 -20 25 -42 4 -39 33 -61
52 -38 9 11 7 18 -9 34 -11 11 -27 36 -35 56 -14 33 -34 44 -49 28z"/>
<path d="M1729 6881 l-23 -18 31 -16 c17 -9 40 -33 52 -52 14 -24 27 -35 38
-33 26 5 28 35 4 43 -13 4 -24 20 -31 45 -6 21 -17 41 -26 44 -21 8 -19 9 -45
-13z"/>
<path d="M3375 6878 c-9 -22 7 -56 80 -175 131 -214 146 -240 204 -353 63
-124 139 -308 166 -405 19 -66 36 -91 55 -80 30 19 -21 175 -146 447 -69 152
-150 296 -249 446 -74 113 -102 143 -110 120z"/>
<path d="M2413 6854 c-7 -18 17 -38 30 -25 9 9 -1 41 -14 41 -5 0 -12 -7 -16
-16z"/>
<path d="M1980 6835 c0 -19 24 -29 46 -21 13 5 14 9 4 21 -16 20 -50 19 -50 0z"/>
<path d="M2334 6825 c-7 -18 12 -45 32 -45 19 0 18 25 -2 44 -19 20 -23 20
-30 1z"/>
<path d="M2990 6802 c0 -10 14 -33 31 -51 23 -26 33 -31 39 -21 8 14 -3 55
-22 77 -16 19 -48 16 -48 -5z"/>
<path d="M2610 6794 c-18 -20 3 -64 30 -64 16 0 20 7 20 30 0 36 -31 58 -50
34z"/>
<path d="M2235 6780 c-3 -6 1 -13 10 -16 19 -8 30 0 20 15 -8 14 -22 14 -30 1z"/>
<path d="M2134 6759 c-10 -17 33 -56 47 -42 8 8 8 17 0 32 -13 23 -36 28 -47
10z"/>
<path d="M2062 6748 c-17 -17 -15 -32 8 -53 31 -28 46 -6 26 34 -19 35 -18 35
-34 19z"/>
<path d="M2510 6730 c0 -23 39 -43 54 -29 11 10 -21 49 -41 49 -7 0 -13 -9
-13 -20z"/>
<path d="M2764 6726 c-14 -36 65 -110 95 -91 20 12 11 46 -18 76 -32 31 -68
38 -77 15z"/>
<path d="M1956 6723 c-7 -8 33 -83 44 -83 20 0 29 36 15 57 -14 20 -49 35 -59
26z"/>
<path d="M2408 6690 c37 -35 62 -39 62 -10 0 23 -28 40 -67 40 l-28 -1 33 -29z"/>
<path d="M1853 6703 c-34 -13 1 -62 45 -63 29 0 30 34 0 54 -24 17 -26 17 -45
9z"/>
<path d="M2303 6673 c-10 -24 33 -56 58 -42 15 8 17 14 9 28 -17 32 -57 41
-67 14z"/>
<path d="M2686 6681 c-13 -20 116 -220 142 -221 28 0 22 34 -19 102 -69 114
-105 149 -123 119z"/>
<path d="M2199 6644 c-11 -14 -10 -19 10 -35 13 -11 32 -19 42 -19 26 0 26 46
0 60 -27 14 -36 13 -52 -6z"/>
<path d="M2597 6643 c-24 -23 36 -112 67 -100 22 9 13 42 -22 80 -27 28 -34
32 -45 20z"/>
<path d="M2110 6622 c0 -21 29 -52 48 -52 15 0 15 25 2 51 -14 25 -50 25 -50
1z"/>
<path d="M2020 6602 c0 -20 39 -62 58 -62 16 0 16 52 0 68 -19 19 -58 15 -58
-6z"/>
<path d="M2480 6595 c0 -8 13 -29 28 -47 46 -50 86 -16 46 40 -18 26 -74 31
-74 7z"/>
<path d="M1935 6591 c-7 -13 21 -97 51 -148 28 -48 60 -71 77 -54 7 7 -1 26
-26 63 -20 29 -41 72 -46 94 -6 23 -18 45 -27 48 -20 8 -22 8 -29 -3z"/>
<path d="M2387 6573 c-13 -13 -7 -50 11 -66 10 -10 31 -17 45 -17 22 0 27 5
27 24 0 37 -62 81 -83 59z"/>
<path d="M2290 6510 c0 -39 35 -77 56 -59 20 16 17 46 -6 69 -30 30 -50 26
-50 -10z"/>
<path d="M2677 6513 c-13 -13 -7 -31 23 -63 25 -27 33 -30 45 -20 21 18 19 37
-10 65 -24 25 -45 31 -58 18z"/>
<path d="M2190 6476 c0 -28 22 -49 46 -44 26 5 28 24 5 47 -28 28 -51 27 -51
-3z"/>
<path d="M2080 6468 c0 -8 12 -30 26 -49 14 -19 37 -57 49 -84 25 -55 48 -80
65 -70 16 10 12 46 -7 68 -10 10 -31 46 -48 80 -25 51 -35 63 -57 65 -19 2
-28 -1 -28 -10z"/>
<path d="M2577 6474 c-14 -14 -6 -41 18 -64 24 -22 26 -23 42 -7 16 16 16 19
-4 44 -21 29 -43 39 -56 27z"/>
<path d="M2455 6440 c-14 -22 82 -167 127 -191 14 -8 23 -8 31 0 15 15 -18 81
-43 88 -15 4 -20 14 -20 37 0 45 -25 76 -60 76 -16 0 -32 -4 -35 -10z"/>
<path d="M2846 6432 c-3 -5 4 -23 14 -40 24 -39 60 -44 60 -9 0 38 -57 76 -74
49z"/>
<path d="M2355 6409 c-13 -19 4 -54 34 -71 18 -10 33 -28 36 -45 14 -61 37
-112 71 -151 20 -23 40 -42 45 -42 18 0 9 43 -16 72 -14 16 -25 42 -25 57 0
15 -13 45 -30 67 -16 21 -30 49 -30 62 0 42 -66 82 -85 51z"/>
<path d="M2754 6395 c-10 -24 13 -65 35 -65 26 0 34 15 21 40 -16 30 -49 45
-56 25z"/>
<path d="M2275 6349 c-9 -28 22 -64 42 -48 16 14 17 41 1 57 -18 18 -36 14
-43 -9z"/>
<path d="M2640 6342 c0 -27 29 -62 51 -62 27 0 25 44 -3 64 -30 21 -48 20 -48
-2z"/>
<path d="M2320 6236 c0 -22 40 -66 60 -66 36 0 32 59 -6 74 -27 10 -54 7 -54
-8z"/>
<path d="M2717 6226 c-7 -18 20 -56 39 -56 20 0 28 24 14 49 -12 24 -45 28
-53 7z"/>
<path d="M2595 6200 c-8 -13 11 -47 34 -60 28 -15 48 12 33 45 -12 26 -55 35
-67 15z"/>
<path d="M2253 6184 c-7 -18 6 -45 24 -51 17 -6 26 36 13 52 -16 20 -29 19
-37 -1z"/>
<path d="M1155 6135 c30 -24 93 -41 106 -28 11 11 -23 26 -91 38 -33 6 -34 5
-15 -10z"/>
<path d="M2769 6138 c-3 -31 4 -54 21 -72 16 -16 22 -17 34 -6 22 18 20 37 -9
65 -26 27 -44 32 -46 13z"/>
<path d="M2404 6106 c-3 -8 0 -24 6 -36 9 -17 14 -19 26 -9 20 16 17 36 -6 49
-16 8 -22 8 -26 -4z"/>
<path d="M2667 6093 c-12 -12 -7 -60 8 -73 19 -16 49 -9 53 13 7 36 -40 82
-61 60z"/>
<path d="M2323 6083 c-7 -3 -13 -14 -13 -25 0 -14 6 -19 22 -16 13 2 24 10 26
19 3 18 -15 29 -35 22z"/>
<path d="M2544 6035 c-9 -23 16 -46 44 -43 31 4 38 21 17 42 -21 20 -54 21
-61 1z"/>
<path d="M2815 6000 c4 -11 33 -77 66 -147 33 -69 64 -148 70 -174 11 -49 39
-73 61 -51 13 13 -25 141 -52 175 -9 12 -20 38 -24 57 -8 43 -53 142 -69 152
-7 4 -22 8 -35 8 -19 0 -22 -4 -17 -20z"/>
<path d="M2471 6001 c-17 -11 -7 -41 13 -41 22 0 30 20 15 36 -9 8 -19 10 -28
5z"/>
<path d="M2365 5960 c-4 -7 -3 -16 3 -22 14 -14 45 -2 40 15 -6 16 -34 21 -43
7z"/>
<path d="M2710 5952 c0 -23 19 -42 41 -42 27 0 33 19 13 41 -22 24 -54 25 -54
1z"/>
<path d="M2610 5911 c0 -37 24 -59 45 -41 25 21 2 69 -32 70 -8 0 -13 -12 -13
-29z"/>
<path d="M2513 5903 c-20 -7 -15 -38 8 -59 20 -18 21 -18 35 1 18 24 18 30 -2
49 -16 17 -21 18 -41 9z"/>
<path d="M2410 5861 c0 -28 21 -61 40 -61 28 0 26 34 -2 54 -26 18 -38 20 -38
7z"/>
<path d="M2770 5845 c-13 -33 -6 -45 26 -45 22 0 25 4 22 32 -4 43 -34 50 -48
13z"/>
<path d="M2654 5815 c-8 -19 23 -68 39 -62 17 5 21 45 7 63 -16 18 -39 18 -46
-1z"/>
<path d="M2554 5787 c-9 -24 14 -69 34 -65 23 4 27 41 7 62 -20 19 -34 20 -41
3z"/>
<path d="M2813 5763 c-39 -14 34 -193 78 -193 5 0 9 18 9 40 0 35 -4 42 -27
52 -39 17 -38 16 -18 38 9 10 15 26 12 34 -7 18 -38 35 -54 29z"/>
<path d="M2476 5731 c-9 -15 23 -36 36 -23 5 5 7 15 4 21 -9 13 -33 14 -40 2z"/>
<path d="M2710 5691 c0 -28 24 -45 40 -26 16 20 6 45 -20 45 -13 0 -20 -7 -20
-19z"/>
<path d="M2612 5668 c-8 -8 -8 -17 -1 -30 17 -32 56 -18 43 15 -8 21 -29 28
-42 15z"/>
<path d="M2510 5633 c0 -20 18 -43 33 -43 4 0 7 12 5 27 -4 32 -38 46 -38 16z"/>
<path d="M2417 5596 c-6 -16 16 -40 26 -29 4 3 7 15 7 25 0 21 -25 24 -33 4z"/>
<path d="M2750 5573 c0 -16 7 -37 15 -47 8 -11 15 -30 15 -42 0 -35 11 -54 30
-54 31 0 33 34 5 85 -14 27 -25 56 -25 66 0 12 -7 19 -20 19 -15 0 -20 -7 -20
-27z"/>
<path d="M2637 5556 c-4 -9 3 -22 16 -31 31 -22 39 -19 35 13 -3 31 -41 44
-51 18z"/>
<path d="M2553 5519 c-17 -17 -4 -39 24 -39 20 0 24 4 21 22 -3 26 -28 34 -45
17z"/>
<path d="M2464 5485 c-8 -20 4 -35 27 -35 23 0 26 35 3 44 -22 8 -24 8 -30 -9z"/>
<path d="M2680 5462 c0 -4 7 -18 16 -31 19 -27 40 -14 29 18 -6 19 -45 31 -45
13z"/>
<path d="M2304 5417 c-3 -8 -4 -39 -2 -68 3 -51 5 -54 31 -57 24 -3 27 0 27
26 0 16 -7 35 -15 42 -8 7 -15 23 -15 36 0 27 -18 42 -26 21z"/>
<path d="M2497 5423 c-13 -12 -7 -71 8 -83 37 -31 61 23 29 68 -16 23 -26 27
-37 15z"/>
<path d="M2604 5415 c-3 -8 -3 -19 1 -25 11 -18 25 -11 25 15 0 27 -17 34 -26
10z"/>
<path d="M2820 5385 c-9 -11 -11 -22 -4 -32 13 -21 25 -21 38 -1 8 14 7 21 -5
33 -14 15 -17 15 -29 0z"/>
<path d="M2402 5348 c2 -12 11 -24 21 -26 14 -3 18 1 15 20 -2 12 -11 24 -21
26 -14 3 -18 -1 -15 -20z"/>
<path d="M2432 5233 c2 -10 10 -18 18 -18 8 0 16 8 18 18 2 12 -3 17 -18 17
-15 0 -20 -5 -18 -17z"/>
<path d="M2757 5243 c-11 -11 -8 -71 4 -79 14 -8 29 14 29 42 0 23 -23 48 -33
37z"/>
<path d="M2354 5216 c-8 -22 3 -33 18 -18 9 9 9 15 0 24 -9 9 -13 7 -18 -6z"/>
<path d="M1460 4954 c-6 -14 -10 -38 -10 -54 0 -16 -6 -35 -14 -42 -7 -8 -17
-28 -21 -46 -3 -17 -11 -34 -16 -37 -5 -4 -9 -16 -9 -28 0 -21 0 -21 23 3 27
28 92 204 82 220 -11 17 -25 11 -35 -16z"/>
<path d="M1201 4866 c-43 -100 -51 -136 -26 -136 32 0 95 130 95 196 0 60 -25
38 -69 -60z"/>
<path d="M1346 4938 c-24 -37 -74 -151 -77 -178 -6 -38 25 -37 54 2 14 18 32
60 41 93 9 35 24 66 36 75 12 9 18 19 14 23 -15 15 -54 6 -68 -15z"/>
<path d="M1595 4829 c-25 -39 -28 -69 -6 -69 23 0 61 93 42 104 -5 3 -21 -13
-36 -35z"/>
<path d="M1507 4813 c-4 -3 -7 -17 -7 -30 0 -28 26 -31 35 -3 9 30 -10 52 -28
33z"/>
<path d="M3595 9536 c-50 -23 -83 -51 -72 -62 7 -8 143 55 158 72 19 23 -29
17 -86 -10z"/>
<path d="M4044 9146 c-45 -48 -78 -121 -89 -201 l-7 -50 44 71 c25 39 68 101
96 139 29 37 52 72 52 76 0 5 -12 9 -27 9 -18 0 -39 -14 -69 -44z"/>
<path d="M5552 9488 c6 -20 71 -48 135 -58 67 -11 197 -11 233 0 l25 7 -25 6
c-39 10 -333 57 -353 57 -10 0 -17 -6 -15 -12z"/>
<path d="M5646 9372 c-10 -17 60 -33 168 -39 73 -4 97 -3 92 6 -4 6 -27 11
-51 11 -24 0 -54 4 -67 9 -42 16 -135 24 -142 13z"/>
<path d="M5059 8505 c-12 -18 -49 -146 -49 -168 0 -40 28 4 45 71 15 59 17
119 4 97z"/>
<path d="M807 8303 c-13 -12 -7 -84 8 -114 9 -16 20 -53 25 -82 12 -62 29
-107 41 -107 15 0 -29 250 -51 290 -12 22 -14 23 -23 13z"/>
<path d="M885 8236 c8 -71 33 -168 46 -180 15 -16 11 83 -6 149 -9 33 -23 67
-32 75 -14 14 -15 9 -8 -44z"/>
<path d="M753 8128 c5 -86 41 -218 57 -218 14 0 12 61 -5 170 -20 120 -23 130
-42 130 -14 0 -15 -12 -10 -82z"/>
<path d="M690 8057 c0 -14 10 -56 22 -93 21 -63 23 -66 26 -36 3 34 -24 139
-39 148 -5 3 -9 -6 -9 -19z"/>
<path d="M626 7974 c-13 -35 30 -204 52 -204 17 0 21 28 12 84 -19 116 -46
167 -64 120z"/>
<path d="M575 7840 c-9 -14 4 -52 16 -45 12 8 12 42 0 50 -5 3 -12 1 -16 -5z"/>
<path d="M525 7729 c-9 -28 2 -84 20 -99 21 -17 35 -3 35 35 0 67 -40 113 -55
64z"/>
<path d="M986 7677 c-16 -12 -16 -14 -2 -26 19 -16 66 -7 66 13 0 13 -20 26
-39 26 -4 0 -15 -6 -25 -13z"/>
<path d="M472 7618 c-18 -18 -14 -38 7 -38 22 0 45 25 36 40 -8 13 -28 13 -43
-2z"/>
<path d="M1034 7259 c-3 -6 -2 -15 4 -21 15 -15 46 -5 50 15 3 12 -3 17 -22
17 -14 0 -28 -5 -32 -11z"/>
<path d="M5536 5334 c4 -22 27 -97 51 -169 64 -186 123 -366 182 -550 55 -172
86 -239 101 -214 12 18 9 27 -62 259 -69 223 -171 513 -220 626 -37 87 -64
111 -52 48z"/>
<path d="M4250 5255 c-14 -16 -1 -70 40 -175 10 -25 26 -67 35 -93 18 -51 41
-69 56 -46 12 17 5 60 -27 169 -35 118 -44 139 -65 150 -23 13 -24 13 -39 -5z"/>
<path d="M4497 5166 c-13 -33 31 -122 50 -102 12 12 6 65 -11 90 -19 29 -31
33 -39 12z"/>
<path d="M4085 5030 c-3 -5 1 -20 8 -32 8 -13 17 -46 20 -75 6 -54 31 -113 47
-113 5 0 14 9 20 20 21 39 -36 210 -71 210 -10 0 -21 -4 -24 -10z"/>
<path d="M4544 5015 c-7 -18 23 -68 36 -60 14 9 12 49 -2 63 -16 16 -27 15
-34 -3z"/>
<path d="M4367 4894 c-11 -12 -8 -69 5 -82 18 -18 46 -14 53 8 12 38 -34 97
-58 74z"/>
<path d="M4025 4870 c-16 -25 33 -217 60 -240 12 -10 19 -10 27 -2 8 8 6 29
-6 76 -9 36 -16 77 -16 91 0 54 -46 107 -65 75z"/>
<path d="M4592 4848 c4 -40 38 -54 38 -16 0 24 -16 48 -33 48 -4 0 -7 -15 -5
-32z"/>
<path d="M4273 4824 c-10 -26 10 -69 32 -69 26 0 31 30 11 60 -19 29 -34 32
-43 9z"/>
<path d="M4507 4813 c-12 -12 -7 -60 8 -73 20 -16 35 -4 35 29 0 36 -25 62
-43 44z"/>
<path d="M3937 4794 c-12 -13 -7 -57 14 -124 23 -76 44 -110 65 -110 19 0 12
43 -25 154 -25 75 -38 95 -54 80z"/>
<path d="M4730 4738 c0 -84 16 -140 38 -136 13 3 17 14 15 51 -1 52 -30 147
-44 147 -5 0 -9 -28 -9 -62z"/>
<path d="M4156 4764 c-15 -40 26 -98 52 -72 16 16 15 61 0 76 -17 17 -45 15
-52 -4z"/>
<path d="M4402 4708 c3 -38 6 -43 28 -43 18 0 26 6 28 22 5 31 -15 63 -39 63
-18 0 -20 -5 -17 -42z"/>
<path d="M4626 4715 c-8 -21 3 -45 20 -45 9 0 14 11 14 30 0 32 -23 42 -34 15z"/>
<path d="M4311 4666 c-17 -20 -10 -67 12 -80 35 -22 52 47 18 78 -16 14 -20
15 -30 2z"/>
<path d="M3563 4615 c-36 -15 -41 -26 -19 -44 25 -21 101 31 79 53 -9 9 -25 7
-60 -9z"/>
<path d="M4657 4624 c-12 -13 -8 -61 8 -74 17 -15 35 -5 35 19 0 23 -33 65
-43 55z"/>
<path d="M3835 4599 c-12 -19 2 -21 32 -5 l28 15 -27 1 c-15 0 -30 -5 -33 -11z"/>
<path d="M4190 4595 c0 -30 31 -76 48 -73 21 4 28 53 11 74 -16 19 -59 18 -59
-1z"/>
<path d="M4424 4579 c-3 -6 3 -21 15 -32 20 -20 22 -20 38 -5 13 14 14 20 3
32 -15 18 -46 21 -56 5z"/>
<path d="M4115 4538 c-9 -24 1 -48 19 -48 24 0 27 17 7 41 -18 22 -20 22 -26
7z"/>
<path d="M4785 4483 c10 -100 52 -334 80 -448 13 -55 40 -199 60 -319 34 -204
64 -314 73 -260 1 11 -8 92 -22 180 -14 87 -32 206 -40 264 -18 124 -109 583
-125 623 -6 15 -16 27 -22 27 -8 0 -9 -19 -4 -67z"/>
<path d="M4566 4521 c-7 -11 18 -33 27 -24 4 3 7 12 7 20 0 15 -26 18 -34 4z"/>
<path d="M4333 4505 c-13 -10 -15 -17 -7 -25 16 -16 48 -9 52 11 4 23 -22 31
-45 14z"/>
<path d="M3677 4493 c-14 -13 -6 -23 19 -23 22 0 25 2 14 15 -14 16 -23 19
-33 8z"/>
<path d="M3987 4478 c-7 -22 22 -68 44 -68 27 0 34 25 15 55 -17 26 -51 34
-59 13z"/>
<path d="M4685 4461 c-3 -11 0 -35 9 -53 8 -18 19 -77 25 -131 13 -113 73
-439 101 -542 26 -101 25 -45 -5 187 -31 244 -86 524 -107 545 -15 14 -17 13
-23 -6z"/>
<path d="M4457 4454 c-22 -22 16 -60 48 -48 26 10 15 48 -15 52 -14 2 -29 0
-33 -4z"/>
<path d="M4234 4435 c-7 -18 3 -35 21 -35 21 0 28 19 15 35 -16 19 -29 19 -36
0z"/>
<path d="M3572 4410 c-7 -11 -21 -20 -31 -20 -42 0 -69 -28 -42 -44 24 -15
131 47 131 76 0 17 -46 7 -58 -12z"/>
<path d="M4362 4388 c-17 -17 -15 -43 4 -59 14 -11 18 -10 30 6 8 10 14 24 14
30 0 12 -20 35 -30 35 -3 0 -11 -5 -18 -12z"/>
<path d="M4126 4361 c-17 -18 -17 -20 2 -30 25 -13 58 9 49 33 -8 22 -30 20
-51 -3z"/>
<path d="M3107 4363 c-18 -17 -5 -33 26 -33 38 0 62 13 53 29 -8 12 -68 15
-79 4z"/>
<path d="M5880 4305 c0 -79 41 -129 48 -58 3 35 -21 103 -37 103 -6 0 -11 -20
-11 -45z"/>
<path d="M3255 4320 c-4 -6 8 -10 30 -10 22 0 34 4 30 10 -3 6 -17 10 -30 10
-13 0 -27 -4 -30 -10z"/>
<path d="M2968 4303 c-9 -10 -13 -24 -11 -30 11 -30 93 0 93 33 0 21 -63 18
-82 -3z"/>
<path d="M3383 4303 c-27 -10 -11 -23 27 -23 40 0 53 13 24 24 -18 7 -33 7
-51 -1z"/>
<path d="M4273 4294 c-9 -23 11 -38 26 -20 13 16 7 36 -10 36 -5 0 -12 -7 -16
-16z"/>
<path d="M4490 4285 c0 -18 24 -30 39 -21 16 10 1 36 -20 36 -10 0 -19 -7 -19
-15z"/>
<path d="M4930 4275 c0 -9 11 -71 25 -138 14 -67 43 -229 65 -360 22 -130 45
-255 51 -277 15 -49 36 -70 45 -46 8 20 8 17 -55 391 -56 329 -84 438 -113
443 -11 2 -18 -3 -18 -13z"/>
<path d="M4387 4263 c-13 -13 -7 -54 9 -60 24 -9 46 24 33 48 -10 19 -30 25
-42 12z"/>
<path d="M4630 4212 c0 -32 20 -179 44 -327 25 -149 50 -306 57 -350 15 -99
24 -125 44 -125 11 0 15 10 15 35 0 38 -114 723 -131 788 -15 55 -29 45 -29
-21z"/>
<path d="M4167 4253 c-4 -3 -7 -17 -7 -30 0 -16 6 -23 20 -23 25 0 36 25 20
45 -14 16 -23 19 -33 8z"/>
<path d="M3245 4226 c-16 -12 -17 -16 -6 -30 26 -31 102 -8 88 28 -8 20 -56
21 -82 2z"/>
<path d="M4290 4176 c0 -26 24 -51 40 -41 14 8 13 38 -2 53 -19 19 -38 14 -38
-12z"/>
<path d="M4514 4174 c-4 -14 -2 -30 4 -36 16 -16 42 8 42 38 0 34 -37 33 -46
-2z"/>
<path d="M4067 4183 c-11 -10 -8 -41 4 -49 16 -9 43 21 36 40 -7 16 -28 21
-40 9z"/>
<path d="M3128 4168 c-45 -16 -29 -38 28 -38 28 0 44 28 23 41 -16 10 -16 10
-51 -3z"/>
<path d="M2794 4129 c-3 -6 -2 -15 4 -21 15 -15 46 -5 50 15 3 12 -3 17 -22
17 -14 0 -28 -5 -32 -11z"/>
<path d="M5935 4121 c-9 -28 5 -70 26 -82 28 -14 39 -3 29 30 -19 66 -43 89
-55 52z"/>
<path d="M4192 4118 c-17 -17 -15 -43 3 -58 21 -18 37 0 33 36 -3 31 -18 40
-36 22z"/>
<path d="M4414 4115 c-9 -22 22 -53 37 -38 15 15 7 47 -14 51 -9 2 -20 -4 -23
-13z"/>
<path d="M3952 4088 c5 -34 38 -37 38 -4 0 20 -5 26 -21 26 -15 0 -20 -5 -17
-22z"/>
<path d="M2945 4090 c-4 -7 -1 -19 8 -27 18 -18 72 -5 72 18 0 18 -70 25 -80
9z"/>
<path d="M4547 4073 c-11 -10 -8 -64 8 -159 22 -127 43 -194 60 -194 18 0 20
50 4 153 -20 135 -51 222 -72 200z"/>
<path d="M3094 4049 c-10 -16 12 -26 46 -21 33 5 39 16 14 26 -25 9 -52 7 -60
-5z"/>
<path d="M4084 4035 c-9 -21 3 -45 21 -45 12 0 35 36 35 56 0 12 -51 2 -56
-11z"/>
<path d="M4324 4036 c-8 -22 3 -49 19 -43 6 2 12 14 12 27 0 27 -22 39 -31 16z"/>
<path d="M3215 4018 c-52 -29 -85 -78 -51 -78 18 0 108 62 114 78 5 15 -36 15
-63 0z"/>
<path d="M2333 3951 c30 -33 77 -96 103 -141 66 -110 137 -196 174 -208 16 -6
33 -18 36 -27 3 -8 13 -15 21 -15 41 0 -14 186 -89 302 -30 47 -38 68 -34 89
6 34 -1 37 -107 44 -45 3 -100 8 -121 11 l-39 5 56 -60z m267 -271 c0 -25 -18
-36 -26 -16 -8 21 3 49 16 41 5 -3 10 -15 10 -25z"/>
<path d="M4447 3985 c-9 -22 3 -46 22 -43 10 2 16 13 16 28 0 28 -29 40 -38
15z"/>
<path d="M3985 3981 c-8 -13 3 -51 14 -51 5 0 14 6 20 13 8 11 6 18 -8 31 -13
11 -21 14 -26 7z"/>
<path d="M4210 3970 c-12 -22 -5 -60 11 -60 14 0 33 46 26 64 -9 22 -24 20
-37 -4z"/>
<path d="M5970 3969 c0 -28 40 -99 56 -99 7 0 23 -19 37 -42 30 -51 81 -108
96 -108 17 0 13 25 -8 44 -10 9 -21 30 -25 46 -3 19 -19 38 -45 55 -21 15 -49
46 -62 70 -27 50 -49 65 -49 34z"/>
<path d="M4347 3913 c-11 -10 -8 -41 4 -49 16 -9 43 21 36 40 -7 16 -28 21
-40 9z"/>
<path d="M4110 3875 c0 -28 24 -34 34 -9 8 20 -1 34 -20 34 -8 0 -14 -10 -14
-25z"/>
<path d="M4467 3880 c-7 -28 11 -157 29 -198 31 -76 45 16 20 134 -7 33 -16
66 -20 72 -11 18 -23 14 -29 -8z"/>
<path d="M5876 3883 c-9 -22 10 -41 25 -26 13 13 5 43 -10 43 -5 0 -12 -8 -15
-17z"/>
<path d="M4000 3815 c0 -29 27 -45 41 -24 14 22 6 44 -19 47 -18 3 -22 -1 -22
-23z"/>
<path d="M4240 3820 c0 -13 5 -20 13 -17 6 2 12 10 12 17 0 7 -6 15 -12 18 -8
2 -13 -5 -13 -18z"/>
<path d="M4357 3803 c-18 -17 1 -73 24 -73 12 0 18 43 8 62 -10 19 -21 23 -32
11z"/>
<path d="M3905 3778 c-9 -23 -3 -50 13 -56 14 -4 16 36 2 58 -8 12 -10 12 -15
-2z"/>
<path d="M5906 3772 c-8 -14 5 -53 18 -49 15 5 14 49 -1 54 -6 2 -14 0 -17 -5z"/>
<path d="M4133 3763 c-7 -2 -13 -14 -13 -25 0 -14 6 -19 23 -16 14 2 22 10 22
22 0 21 -12 28 -32 19z"/>
<path d="M3146 3708 c-18 -25 -22 -98 -6 -98 13 0 50 74 50 100 0 27 -25 26
-44 -2z"/>
<path d="M4247 3697 c-3 -8 -1 -20 3 -28 7 -11 13 -10 29 5 12 11 21 23 21 28
0 14 -47 9 -53 -5z"/>
<path d="M4016 3675 c-6 -17 17 -31 34 -20 5 3 10 13 10 21 0 19 -36 18 -44
-1z"/>
<path d="M4377 3673 c-11 -10 -8 -71 3 -78 16 -10 40 14 40 39 0 32 -27 56
-43 39z"/>
<path d="M5933 3643 c-7 -18 15 -64 34 -70 7 -3 22 10 33 29 19 31 19 34 3 46
-24 17 -62 15 -70 -5z"/>
<path d="M6197 3646 c-3 -8 1 -22 8 -33 18 -23 40 -5 30 26 -7 24 -30 28 -38
7z"/>
<path d="M6084 3636 c-7 -19 13 -56 31 -56 18 0 20 41 3 58 -16 16 -27 15 -34
-2z"/>
<path d="M4147 3623 c-13 -12 -7 -33 8 -33 8 0 15 9 15 20 0 20 -11 26 -23 13z"/>
<path d="M4627 3623 c-12 -12 -7 -90 6 -102 18 -15 27 -4 27 33 0 58 -15 88
-33 69z"/>
<path d="M6322 3608 c2 -12 10 -23 18 -23 22 0 19 39 -3 43 -15 3 -18 -1 -15
-20z"/>
<path d="M4254 3576 c-8 -32 0 -54 22 -63 21 -8 35 15 32 52 -4 41 -44 49 -54
11z"/>
<path d="M4521 3572 c-14 -26 -14 -62 -1 -62 18 0 33 46 22 66 -9 16 -10 16
-21 -4z"/>
<path d="M4030 3529 c0 -18 2 -19 15 -9 8 7 15 16 15 21 0 5 -7 9 -15 9 -9 0
-15 -9 -15 -21z"/>
<path d="M4862 3530 c0 -14 2 -19 5 -12 2 6 2 18 0 25 -3 6 -5 1 -5 -13z"/>
<path d="M2987 3323 c-120 -262 -161 -365 -252 -634 -82 -244 -87 -256 -121
-285 -23 -19 -62 -109 -88 -200 -17 -62 -78 -164 -95 -159 -21 8 -40 -13 -47
-51 -5 -27 -15 -39 -45 -55 -49 -24 -84 -76 -104 -154 -29 -114 -13 -173 36
-129 37 34 67 97 102 217 19 66 40 124 46 130 17 17 13 -17 -14 -122 -30 -113
-30 -121 -7 -121 37 0 63 45 83 141 21 105 49 189 62 189 5 0 7 -12 3 -28 -3
-15 -9 -57 -12 -93 -8 -80 6 -98 43 -55 19 22 23 39 23 89 0 34 7 85 14 112
14 48 14 49 15 15 1 -19 4 -52 7 -72 13 -74 64 -30 64 54 0 20 10 39 34 61 43
41 69 124 70 230 1 43 6 81 11 85 6 4 10 32 11 62 1 38 13 87 39 155 33 89 64
162 228 530 52 117 60 145 47 165 -18 29 -59 -32 -120 -180 -128 -309 -173
-410 -182 -410 -14 0 1 46 63 192 32 75 77 190 100 255 23 65 54 147 70 182
16 35 29 70 29 77 0 40 -27 -6 -113 -193z"/>
<path d="M4160 3501 c0 -21 26 -36 36 -20 6 11 -13 39 -27 39 -5 0 -9 -9 -9
-19z"/>
<path d="M6130 3513 c1 -18 38 -55 49 -49 15 10 14 22 -5 40 -16 16 -44 22
-44 9z"/>
<path d="M4404 3497 c-10 -27 0 -62 19 -65 16 -3 18 2 15 34 -3 39 -24 57 -34
31z"/>
<path d="M5844 3496 c-3 -8 0 -25 7 -37 11 -22 12 -22 25 -4 9 12 10 23 3 36
-12 23 -28 25 -35 5z"/>
<path d="M6055 3498 c-4 -10 -4 -26 0 -35 6 -17 7 -17 16 0 7 11 7 23 0 35 -9
16 -10 16 -16 0z"/>
<path d="M6390 3502 c0 -12 58 -98 76 -112 8 -7 17 -10 20 -8 8 9 -25 80 -48
105 -21 23 -48 31 -48 15z"/>
<path d="M4292 3437 c-24 -26 -28 -47 -10 -65 17 -17 44 2 57 39 18 52 -9 67
-47 26z"/>
<path d="M5362 3448 c-17 -17 -15 -63 3 -78 23 -19 37 0 33 45 -3 41 -16 53
-36 33z"/>
<path d="M5483 3445 c-3 -10 2 -32 12 -50 14 -28 15 -39 5 -69 -13 -40 -7 -56
20 -56 43 0 52 72 18 140 -25 48 -44 61 -55 35z"/>
<path d="M4640 3400 c0 -54 15 -66 30 -24 12 31 3 74 -16 74 -10 0 -14 -14
-14 -50z"/>
<path d="M4034 3415 c-8 -34 9 -53 31 -35 20 17 16 54 -7 58 -12 2 -19 -5 -24
-23z"/>
<path d="M3815 3410 c-11 -17 5 -32 21 -19 8 6 14 15 14 20 0 12 -27 11 -35
-1z"/>
<path d="M4870 3390 c-11 -21 -4 -92 13 -125 10 -19 10 -19 18 0 16 41 7 145
-12 145 -4 0 -13 -9 -19 -20z"/>
<path d="M5111 3391 c-25 -25 -27 -63 -5 -82 14 -11 18 -10 31 6 23 32 27 65
10 82 -13 14 -17 13 -36 -6z"/>
<path d="M5215 3390 c-9 -30 2 -40 46 -40 47 0 52 18 10 43 -38 22 -48 21 -56
-3z"/>
<path d="M4519 3376 c-9 -18 -8 -33 0 -57 6 -17 11 -53 11 -78 0 -46 13 -71
36 -71 8 0 10 26 7 93 -2 50 -6 102 -9 115 -6 29 -32 28 -45 -2z"/>
<path d="M5877 3383 c-18 -17 -3 -83 18 -83 19 0 23 20 13 58 -8 31 -18 39
-31 25z"/>
<path d="M4163 3364 c-8 -22 10 -49 33 -49 24 0 29 28 9 49 -21 20 -34 20 -42
0z"/>
<path d="M5750 3341 c0 -31 24 -59 35 -41 3 6 4 24 0 40 -9 39 -35 40 -35 1z"/>
<path d="M4753 3324 c-14 -37 21 -209 43 -209 16 0 16 151 0 189 -16 38 -33
46 -43 20z"/>
<path d="M4985 3330 c-4 -6 1 -22 10 -37 16 -23 18 -24 33 -9 13 13 14 20 6
34 -13 21 -40 27 -49 12z"/>
<path d="M5633 3328 c-20 -26 -23 -49 -8 -54 21 -9 47 15 43 39 -4 25 -21 32
-35 15z"/>
<path d="M4292 3298 c-15 -15 -17 -330 -2 -359 15 -26 46 -24 54 4 10 37 7
182 -5 216 -9 25 -8 40 5 72 12 29 13 45 6 59 -12 22 -40 26 -58 8z"/>
<path d="M5387 3304 c-13 -13 -8 -64 7 -64 19 0 38 26 34 47 -3 18 -29 29 -41
17z"/>
<path d="M2434 3286 c-8 -22 3 -33 18 -18 9 9 9 15 0 24 -9 9 -13 7 -18 -6z"/>
<path d="M4660 3268 c0 -18 5 -40 10 -48 7 -11 10 -2 10 33 0 26 -4 47 -10 47
-5 0 -10 -15 -10 -32z"/>
<path d="M4042 3278 c-30 -30 1 -94 33 -68 16 13 19 38 9 64 -7 19 -25 21 -42
4z"/>
<path d="M3814 3266 c-7 -18 1 -46 13 -46 16 0 31 16 35 35 4 25 -39 35 -48
11z"/>
<path d="M5243 3264 c-8 -20 17 -36 34 -22 10 8 10 14 2 24 -15 18 -28 18 -36
-2z"/>
<path d="M7125 3270 c-6 -10 52 -60 71 -60 16 0 19 36 4 45 -22 14 -70 23 -75
15z"/>
<path d="M6524 3256 c-9 -24 12 -44 28 -28 10 10 8 16 -5 29 -15 15 -17 15
-23 -1z"/>
<path d="M3692 3198 c-19 -19 -14 -38 12 -38 26 0 51 24 41 40 -8 14 -38 13
-53 -2z"/>
<path d="M5007 3185 c-8 -18 11 -31 25 -17 11 11 3 32 -12 32 -4 0 -10 -7 -13
-15z"/>
<path d="M3952 3176 c1 -10 8 -17 13 -17 15 1 12 24 -3 29 -9 3 -13 -2 -10
-12z"/>
<path d="M4166 3181 c-7 -11 18 -33 27 -24 4 3 7 12 7 20 0 15 -26 18 -34 4z"/>
<path d="M4887 3163 c-4 -3 -7 -17 -7 -30 0 -16 6 -23 20 -23 25 0 36 25 20
45 -14 16 -23 19 -33 8z"/>
<path d="M4419 3137 c-15 -34 6 -109 29 -105 21 4 28 61 13 101 -13 33 -28 34
-42 4z"/>
<path d="M4048 3129 c-22 -13 -23 -42 -2 -60 14 -11 18 -10 30 6 16 21 15 57
-1 61 -5 2 -18 -1 -27 -7z"/>
<path d="M3825 3109 c-9 -27 14 -44 34 -24 16 16 8 45 -13 45 -8 0 -18 -10
-21 -21z"/>
<path d="M4552 3065 c4 -67 19 -98 39 -78 16 16 -9 143 -28 143 -13 0 -15 -12
-11 -65z"/>
<path d="M2406 3075 c-11 -29 -7 -150 4 -139 6 6 11 41 12 78 1 68 -5 90 -16
61z"/>
<path d="M4175 3080 c-10 -16 -18 -175 -11 -204 9 -38 33 -32 45 12 27 94 0
246 -34 192z"/>
<path d="M3684 3056 c-11 -28 1 -51 25 -51 28 0 47 25 38 49 -8 20 -56 21 -63
2z"/>
<path d="M3953 3053 c-18 -7 -16 -32 2 -39 23 -9 48 15 34 32 -12 15 -16 16
-36 7z"/>
<path d="M3048 3013 c-7 -16 -40 -91 -75 -167 -65 -145 -69 -156 -54 -156 12
0 149 278 157 319 8 39 -12 42 -28 4z"/>
<path d="M4046 2978 c-3 -7 -9 -47 -15 -88 -8 -63 -8 -79 5 -98 8 -13 21 -21
27 -19 16 5 28 111 19 166 -7 43 -28 66 -36 39z"/>
<path d="M3811 2966 c-9 -11 -10 -20 -2 -35 16 -28 43 -16 39 17 -4 30 -20 38
-37 18z"/>
<path d="M4425 2936 c-15 -11 -15 -13 -1 -25 18 -15 46 -8 46 13 0 20 -25 27
-45 12z"/>
<path d="M2467 2884 c-4 -4 -7 -24 -7 -44 0 -51 -18 -97 -39 -103 -33 -8 -35
-102 -3 -139 39 -45 78 -1 88 99 9 86 -17 209 -39 187z"/>
<path d="M4287 2873 c-13 -12 -7 -53 7 -53 20 0 39 27 32 45 -6 15 -28 20 -39
8z"/>
<path d="M3803 2834 c-18 -28 -9 -56 20 -62 25 -5 51 42 37 67 -15 28 -36 26
-57 -5z"/>
<path d="M3556 2813 c-4 -9 0 -23 9 -32 15 -15 18 -14 31 3 8 11 14 26 14 33
0 19 -47 16 -54 -4z"/>
<path d="M3701 2767 c-16 -20 -6 -56 10 -40 6 6 9 21 7 33 -3 21 -4 22 -17 7z"/>
<path d="M3455 2741 c-6 -11 9 -23 19 -14 9 9 7 23 -3 23 -6 0 -12 -4 -16 -9z"/>
<path d="M3800 2700 c-16 -30 -9 -105 10 -105 22 0 44 74 31 102 -13 28 -27
29 -41 3z"/>
<path d="M3557 2693 c-4 -3 -7 -19 -7 -35 0 -24 4 -28 30 -28 25 0 30 4 30 23
0 35 -33 60 -53 40z"/>
<path d="M3444 2627 c-10 -27 0 -72 16 -72 21 0 25 58 6 74 -13 11 -17 11 -22
-2z"/>
<path d="M2867 2606 c-21 -22 -22 -36 -2 -36 17 0 29 22 23 41 -3 8 -9 6 -21
-5z"/>
<path d="M3328 2546 c-23 -52 18 -77 49 -30 16 25 16 27 -2 40 -26 19 -34 18
-47 -10z"/>
<path d="M3553 2534 c-7 -18 11 -39 26 -30 17 11 13 46 -4 46 -9 0 -18 -7 -22
-16z"/>
<path d="M3446 2443 c-3 -3 -6 -17 -6 -31 0 -21 2 -22 15 -12 8 7 15 18 15 26
0 15 -15 26 -24 17z"/>
<path d="M3561 2416 c-16 -19 -10 -51 9 -51 17 0 26 43 12 57 -5 5 -14 3 -21
-6z"/>
<path d="M3315 2399 c-12 -19 4 -59 24 -59 22 0 34 25 26 51 -7 20 -40 26 -50
8z"/>
<path d="M3177 2293 c-11 -10 -8 -41 3 -48 15 -9 40 14 40 36 0 19 -29 27 -43
12z"/>
<path d="M5180 2083 c-124 -13 -349 -49 -425 -68 -112 -28 -249 -87 -508 -216
-110 -56 -270 -132 -356 -170 -85 -38 -160 -74 -166 -80 -21 -24 103 3 264 57
188 63 269 84 326 84 l40 0 -45 -21 c-54 -25 -532 -184 -578 -193 -26 -4 -36
-1 -53 18 l-20 23 -362 -73 c-358 -72 -500 -93 -552 -80 -42 11 -21 23 53 29
73 7 162 33 162 48 0 14 -124 11 -225 -6 -175 -28 -309 -87 -395 -174 -69 -70
-107 -141 -169 -318 -56 -162 -54 -158 -143 -292 -80 -120 -184 -324 -174
-340 12 -18 34 -12 48 13 31 57 91 137 165 222 153 175 193 235 309 463 86
168 98 182 188 201 28 6 132 15 231 20 280 14 493 50 739 125 66 20 149 43
185 51 83 19 356 110 526 176 72 27 155 59 185 71 44 16 309 150 665 335 123
64 147 72 210 72 67 0 95 6 95 21 0 9 -145 10 -220 2z m-620 -294 c-28 -19
-109 -59 -120 -59 -23 0 4 23 54 46 54 25 95 34 66 13z m-1360 -449 c-8 -5
-44 -9 -80 -9 -55 1 -59 3 -30 9 55 12 128 12 110 0z"/>
<path d="M1777 1564 c-12 -12 -8 -57 13 -129 32 -111 40 -183 33 -285 -6 -98
-21 -101 -22 -5 -2 97 -53 275 -79 275 -5 0 -12 -18 -15 -41 -3 -23 -15 -50
-26 -60 -18 -17 -21 -32 -21 -92 -1 -303 -62 -686 -126 -784 -19 -31 -19 -83
2 -83 29 0 53 20 81 68 15 26 46 75 70 109 23 35 51 91 62 125 11 35 27 82 35
106 9 24 21 78 28 120 6 42 19 99 30 127 39 100 33 427 -10 515 -16 34 -40 48
-55 34z"/>
<path d="M1927 1324 c-4 -21 -7 -84 -7 -139 0 -78 3 -96 12 -87 15 15 24 207
10 241 -8 23 -9 22 -15 -15z"/>
</g>
</svg>
